<?xml version="1.0" standalone="no"?><!DOCTYPE svg PUBLIC "-//W3C//DTD SVG 1.1//EN" "http://www.w3.org/Graphics/SVG/1.1/DTD/svg11.dtd"><svg t="1737021298960" class="icon" viewBox="0 0 1024 1024" version="1.1" xmlns="http://www.w3.org/2000/svg" p-id="4376" xmlns:xlink="http://www.w3.org/1999/xlink" width="200" height="200"><path d="M932.5 581.2c0 1-8.1 1.9-8.1 2.9s0.6 1.9 0.6 2.9 0.6 1.9 0.6 2.9 4.9 2.1 4.9 3.1-12.5 1.4-12.5 2.3c0 1 5.6 2.2 5.5 3.1-0.1 1-4.9 1.6-5 2.5-0.1 1 5.8 2.3 5.8 3.3-0.1 1 2.1 2.1 2.1 3.1-0.1 1-6.1 1.3-6.2 2.3-0.1 1-0.9 1.8-1 2.7-0.1 1-2.8 1.5-2.9 2.5-0.1 1 1.6 2.1 1.5 3-0.1 1 7.5 2.9 7.3 3.9-0.1 1-9 0.6-9.2 1.6-0.1 1 6.2 2.9 6 3.8-0.2 1-6.1 0.9-6.3 1.9-0.2 0.9 10.4 3.7 10.2 4.7-0.2 0.9-0.6 1.9-0.8 2.8-0.2 0.9-9.8 0-10 1-0.2 0.9 13 4.6 12.8 5.6-0.2 0.9-5.2 0.9-5.4 1.8-0.2 0.9-2.4 1.4-2.7 2.4-0.2 0.9 6.5 3.5 6.3 4.5-0.2 0.9-15.5-1.8-15.7-0.9-0.2 0.9 7.8 4 7.6 4.9-0.2 0.9-9.2-0.5-9.4 0.4-0.3 0.9 1.9 2.5 1.6 3.4-0.3 0.9 5 3.4 4.8 4.3-0.3 0.9-5.3 0.4-5.5 1.3-0.3 0.9 0 2-0.3 2.9-0.3 0.9 10.5 5.4 10.2 6.3-0.3 0.9-5 0.4-5.3 1.3-0.3 0.9-1.3 1.6-1.6 2.5s-8.8-1.1-9.1-0.1c-0.3 0.9 2.9 3 2.5 3.9s1.9 2.7 1.6 3.6c-0.3 0.9-3.5 0.7-3.9 1.6-0.3 0.9 3 3.2 2.7 4.1-0.4 0.9 4.9 4.1 4.5 5-0.4 0.9-8.2-1.3-8.6-0.4-0.4 0.9 2.1 3 1.7 3.9-0.4 0.9-5.9-0.5-6.3 0.4-0.4 0.9-1.5 1.4-1.9 2.3-0.4 0.9 4.5 4.2 4.1 5.1-0.4 0.9-0.5 1.9-0.9 2.8-0.4 0.9-8.7-2.1-9.1-1.2-0.4 0.9 3.3 3.7 2.9 4.6-0.4 0.9-3.2 0.5-3.7 1.3-0.4 0.9 7.1 5.8 6.7 6.7-0.4 0.9-10.4-3.3-10.9-2.5-0.5 0.8 3.7 4.2 3.3 5-0.5 0.8 2.1 3.4 1.7 4.2-0.5 0.8 3.7 4.3 3.2 5.2-0.5 0.8-9.9-3.4-10.3-2.6-0.5 0.8 3.4 4.2 2.9 5.1-0.5 0.8-1.9 1.1-2.4 1.9-0.5 0.8-5.5-1.1-6-0.3s4.1 4.8 3.6 5.6c-0.5 0.8-0.8 1.8-1.3 2.6s4 4.9 3.4 5.7c-0.5 0.8-5.2-1.1-5.8-0.3-0.5 0.8-4.3-0.6-4.9 0.2-0.5 0.8 0.5 2.7 0 3.5-0.5 0.8-4.9-1.1-5.5-0.3-0.6 0.8 2.4 4 1.8 4.8-0.6 0.8 1.9 3.8 1.4 4.6-0.6 0.8-1 1.7-1.6 2.5-0.6 0.8-9.5-4.7-10.1-4-0.6 0.8 5.6 6.6 5 7.4-0.6 0.8-7.1-3-7.6-2.3-0.6 0.8 5.1 6.4 4.5 7.2-0.6 0.8 1 3.3 0.4 4-0.6 0.7-0.3 2.3-0.9 3-0.6 0.7-2.4 0.6-3 1.3-0.6 0.7-6.7-3.1-7.3-2.3-0.6 0.7-3.2-0.3-3.8 0.5-0.6 0.7 3.9 6 3.3 6.7-0.6 0.7 2.5 4.8 1.9 5.5-0.6 0.7-13-9-13.6-8.3-0.6 0.7 1 3.4 0.3 4.2-0.7 0.7 7.8 9.9 7.2 10.6-0.7 0.7-12.8-9.4-13.5-8.7-0.7 0.7 8.6 10.9 8 11.6-0.7 0.7-0.8 2-1.5 2.7-0.7 0.7-3.6-0.8-4.3-0.1-0.7 0.7 0.8 3.5 0.1 4.2-0.7 0.7-4.9-2.2-5.6-1.5-0.7 0.7-2.3 0.4-3 1.1-0.7 0.7-2.2 0.5-2.9 1.1-0.7 0.7-4.8-2.4-5.5-1.7-0.7 0.7 7.8 11.2 7.1 11.9-0.7 0.6-1.3 1.5-2 2.2-0.7 0.6-4.3-1.9-5.1-1.3-0.7 0.6-7.6-5.7-8.3-5.1-0.7 0.6 1.3 4.4 0.6 5-0.7 0.6-4.8-2.7-5.5-2.1-0.7 0.6-2.3 0.2-3 0.8-0.7 0.6 4.4 8.3 3.7 8.9-0.7 0.6-1.4 1.3-2.1 2-0.7 0.6 0.1 3.2-0.7 3.8-0.7 0.6-8.6-7.7-9.3-7.1-0.8 0.6 2.5 6.3 1.7 6.9-0.8 0.6-3-0.7-3.7-0.2-0.8 0.6 1.1 4.6 0.4 5.2-0.8 0.6-2.9-0.6-3.6 0-0.8 0.6-4.6-3.1-5.4-2.5-0.8 0.6 2.3 6.4 1.5 7-0.8 0.6 1.7 5.7 0.9 6.3-0.8 0.6-5-3.7-5.8-3.1-0.8 0.6-2.3 0.1-3.1 0.6-0.8 0.5-4.2-2.8-5-2.3-0.8 0.5 5.8 12 5 12.5-0.8 0.5-6.7-6.6-7.5-6.1-0.8 0.5-3.6-2-4.4-1.5-0.8 0.5-1.6 0.9-2.4 1.5-0.8 0.5 3.4 8.9 2.6 9.4-0.8 0.5 0.6 4.6-0.2 5.2-0.8 0.5-6.3-6.5-7.1-6-0.8 0.5 2.1 7.2 1.3 7.7s-0.6 2.8-1.4 3.3c-0.8 0.5-1.6 1.2-2.4 1.7-0.8 0.5-2.7-0.8-3.5-0.3-0.8 0.5-2.3-0.1-3.2 0.4-0.8 0.5-1.6 1.1-2.5 1.6-0.8 0.5-1.7 1-2.5 1.5s-5.9-6.9-6.8-6.5c-0.8 0.5-3.4-2.3-4.2-1.9-0.8 0.5 3.6 10.9 2.7 11.4-0.9 0.4-7.1-9.6-8-9.2-0.9 0.4 2.7 9.6 1.9 10-0.9 0.4-2.2 0-3 0.4-0.9 0.4-4.1-4-5-3.6-0.9 0.4 2 8.5 1.1 9-0.9 0.4-6.2-8.5-7-8-0.9 0.4-1.7 0.9-2.5 1.3-0.9 0.4 3.9 13.1 3 13.5-0.9 0.4-5-6.4-5.9-6-0.9 0.4-2.8-1.6-3.7-1.2-0.9 0.4 1.4 8.1 0.6 8.5-0.9 0.4-5.2-7.3-6.1-6.9-0.9 0.4-1.2 2.1-2.1 2.4-0.9 0.4-0.6 3.4-1.5 3.8-0.9 0.4-4.1-5.1-5-4.7-0.9 0.4 2.3 10.8 1.4 11.2-0.9 0.4-0.8 3.4-1.7 3.8-0.9 0.3-7-12.8-7.9-12.5-0.9 0.3-0.5 4-1.4 4.4-0.9 0.3-2.6-1.6-3.5-1.3-0.9 0.3-1.1 2.6-2 2.9-0.9 0.3-0.2 5.2-1.1 5.5-0.9 0.3-3.3-3.7-4.2-3.4-0.9 0.3 0.9 8.4-0.1 8.8-0.9 0.3-1.5 1.8-2.4 2.1-0.9 0.3-6-12-6.9-11.7-0.9 0.3-1.3 2.1-2.2 2.4-0.9 0.3-2.2-0.9-3.2-0.6-0.9 0.3-1.5 1.4-2.4 1.7-0.9 0.3-1.2 2.5-2.2 2.7-0.9 0.3-3-3.4-3.9-3.2-0.9 0.3 1.1 10.6 0.1 10.9-0.9 0.3-1.4 2.2-2.3 2.4-0.9 0.3-4.7-9.8-5.6-9.6-0.9 0.3-2.2-1.1-3.2-0.8-0.9 0.2 2.2 16.2 1.3 16.4-0.9 0.2-2.9-3.4-3.8-3.1-0.9 0.2-1.8 0.8-2.7 1.1-0.9 0.2-2.6-2.4-3.5-2.1-0.9 0.2-2.9-4.1-3.9-3.9-0.9 0.2-0.5 6.3-1.5 6.5-0.9 0.2-1.5 2.4-2.4 2.6-0.9 0.2-4.4-11.4-5.4-11.2-0.9 0.2 0.7 12.6-0.2 12.8-0.9 0.2-3.6-8.1-4.6-7.9-0.9 0.2-2.6-3.2-3.5-3.1-0.9 0.2-0.3 8.7-1.2 8.9-0.9 0.2-3-5.5-3.9-5.3-0.9 0.2-2.3-2.1-3.2-1.9-0.9 0.2-0.4 9.1-1.3 9.2-0.9 0.2-1.1 5-2.1 5.1-0.9 0.2-2.2-1.4-3.1-1.2-0.9 0.2-3.8-12-4.7-11.8-0.9 0.1-0.4 10-1.4 10.1-1 0.1-1.6 2.6-2.5 2.7-1 0.1-2.2-1.8-3.2-1.6-1 0.1-2.7-6-3.7-5.9-1 0.1-2.2-2.4-3.2-2.3-1 0.1-1 7.9-1.9 8-1 0.1-1.6 2.9-2.6 3-1 0.1-2.2-2.7-3.2-2.6-1 0.1-2.6-7-3.6-6.9-1 0.1-1 9.9-1.9 10-1 0.1-2.9-10.8-3.8-10.7-1 0.1-1.3 7.8-2.2 7.9-1 0.1-2.2-4.2-3.2-4.1-1 0.1-1.5 6.2-2.4 6.2-1 0.1-2-0.3-2.9-0.3-1 0.1-1.9 1.4-2.8 1.4-1 0.1-2.2-5-3.2-5s-1.5 9.8-2.4 9.8c-1 0-2.1-4.1-3.1-4.1s-1.9 1.5-2.9 1.5-1.9 2.2-2.8 2.2c-1 0-2.1-6.8-3.1-6.7-1 0-2-7.3-3-7.3s-1.7 15.7-2.7 15.7c-1 0-2-11.2-3-11.2s-1.9 8.3-2.9 8.3-1.9-8.5-2.9-8.5-1.9-3.9-2.8-3.9c-1 0-2 5.5-2.9 5.5-1 0-2 5.8-3 5.8s-1.7-7.6-2.7-7.6c-1 0-1.8-2.5-2.8-2.5-1 0-2 3-3 3s-2.4 10.7-3.4 10.6c-1 0-1.9-0.6-2.9-0.6s-1.5-7.8-2.5-7.9c-1-0.1-1.7-2.9-2.7-2.9-1-0.1-2.5 8.6-3.5 8.5-1-0.1-2.1 1.3-3 1.2-1-0.1-1.4-6.6-2.4-6.6-1-0.1-1.7-3-2.6-3.1-1-0.1-2 1.4-3 1.3-1-0.1-2.7 7.8-3.6 7.7-1-0.1-1.7-2.7-2.7-2.8-1-0.1-1-8.4-2-8.5-1-0.1-2.2 2.7-3.2 2.6-1-0.1-2.8 7.2-3.8 7.1-1-0.1-1.7-2.5-2.6-2.6-1-0.1-1.1-6.3-2.1-6.5-1-0.1-1.7-1.5-2.7-1.7-1-0.1-3.2 8.8-4.2 8.6-1-0.1-1.3-4.2-2.3-4.3-1-0.1-2.8 5.4-3.8 5.2-1-0.2-0.9-6.6-1.9-6.8-0.9-0.2-2.3 2.1-3.3 1.9-0.9-0.2-1.9-0.6-2.8-0.8-0.9-0.2 0.2-12.1-0.7-12.3-0.9-0.2-2 0.7-3 0.5-0.9-0.2-4.4 12.9-5.4 12.7-0.9-0.2-0.6-7.1-1.5-7.3-0.9-0.2-1-4.8-1.9-5-0.9-0.2-1.7-1-2.7-1.2-0.9-0.2-3.7 8-4.6 7.8-0.9-0.2-0.1-8.2-1.1-8.4-0.9-0.2-4.7 11.8-5.6 11.6-0.9-0.2-0.3-7.3-1.2-7.5-0.9-0.2-3.3 5.4-4.2 5.2-0.9-0.2-2.2 0.9-3.2 0.6-0.9-0.2 1.8-14.8 0.9-15-0.9-0.2-2.5 2.1-3.4 1.9-0.9-0.2-1.3-2.5-2.2-2.8-0.9-0.3-2.3 1.3-3.2 1-0.9-0.3-1-3.5-1.9-3.8-0.9-0.3-3.8 6.5-4.8 6.2-0.9-0.3 0-6.7-0.9-7-0.9-0.3-2.4 1.3-3.3 1.1-0.9-0.3-3.3 4.1-4.2 3.8-0.9-0.3 0.4-7.6-0.5-7.9-0.9-0.3-2.2 0.6-3.1 0.3-0.9-0.3-1.3-2.2-2.2-2.5-0.9-0.3-1.6-1.1-2.5-1.4-0.9-0.3-6.5 12.9-7.4 12.6-0.9-0.3 0.1-6.1-0.8-6.4-0.9-0.3-0.9-3.1-1.8-3.4-0.9-0.3-2.5 1.4-3.4 1.1-0.9-0.3-1.3-1.9-2.2-2.2-0.9-0.3 0.3-6.1-0.6-6.5-0.9-0.3-4.5 6.4-5.4 6-0.9-0.3-1.7-0.9-2.6-1.2-0.9-0.4-2.3 0.5-3.2 0.1-0.9-0.4-2.5 1-3.4 0.6-0.9-0.4 2.3-10.6 1.4-10.9-0.9-0.4-6.9 11.3-7.8 11-0.9-0.4-1.9-0.6-2.8-0.9-0.9-0.4 2.1-9.6 1.2-10-0.9-0.4-3.2 2.4-4.1 2-0.9-0.4-0.8-2.9-1.7-3.3-0.9-0.4-6.1 8.6-7 8.2-0.9-0.4 1.6-8 0.8-8.5-0.9-0.4-1-2.3-1.9-2.7-0.9-0.4-5.1 6.1-6 5.7-0.9-0.4 1-6.5 0.2-6.9-0.9-0.4 1.3-6.9 0.5-7.3-0.9-0.4-4.5 4.6-5.3 4.2-0.9-0.4-4 3.5-4.9 3.1-0.9-0.4-3.1 1.7-3.9 1.2-0.8-0.5 4.8-13.1 4-13.6-0.8-0.5-5.6 6.3-6.5 5.9-0.8-0.5 1.4-6.5 0.6-6.9-0.8-0.5-2.5 0.5-3.3 0.1-0.8-0.5-4.8 4.5-5.6 4-0.8-0.5 3.9-10.6 3.1-11-0.8-0.5-7.6 9.1-8.4 8.6-0.8-0.5 0.1-3.9-0.8-4.4-0.8-0.5-5.5 5.3-6.3 4.8-0.8-0.5 5.8-13.1 5-13.6-0.8-0.5-8 9.1-8.8 8.6-0.8-0.5 3.3-8.8 2.5-9.4-0.8-0.5-2.3 0-3.1-0.5-0.8-0.5-7.2 7.4-8 6.9-0.8-0.5 1.4-5.7 0.6-6.2-0.8-0.5 0.5-4.2-0.3-4.8-0.8-0.5 0.8-4.6 0.1-5.1-0.8-0.5-6.3 5.7-7 5.1-0.8-0.6 3.5-8.2 2.7-8.8-0.8-0.6-9.3 9.6-10 9.1-0.8-0.6 1.1-4.8 0.3-5.3-0.8-0.6-4.2 2.5-5 1.9-0.8-0.6-1-1.9-1.8-2.5-0.8-0.6-0.4-2.7-1.2-3.3-0.8-0.6 0.8-4.2 0-4.8-0.8-0.6-1.5-1.3-2.2-1.9-0.8-0.6 3-6.8 2.3-7.4-0.8-0.6-7 5.7-7.8 5.1-0.7-0.6-3.6 1.3-4.3 0.7-0.7-0.6 0.3-3.4-0.4-4-0.7-0.6-0.9-1.9-1.6-2.5-0.7-0.6-4 1.6-4.7 1-0.7-0.6 4.7-8.3 4-8.9-0.7-0.6-7.9 6.1-8.6 5.4-0.7-0.6 0-2.9-0.7-3.6-0.7-0.6 1-3.9 0.2-4.6-0.7-0.7 1.1-4 0.4-4.7-0.7-0.7-9.3 7.1-10 6.4-0.7-0.7 1.9-4.8 1.2-5.5-0.7-0.7 4.5-7.4 3.8-8-0.7-0.7-3.7 1.1-4.4 0.4-0.7-0.7 0.1-2.8-0.6-3.5-0.7-0.7-3.9 1.2-4.6 0.5-0.7-0.7-7.3 4.4-8 3.7-0.7-0.7 7-9.4 6.3-10.1-0.7-0.7-2.2-0.6-2.8-1.3-0.7-0.7-6.3 3.3-7 2.5-0.7-0.7 1.6-4.1 1-4.8-0.6-0.7-0.7-2-1.3-2.7-0.6-0.7 1.4-3.8 0.7-4.5-0.6-0.7-8.9 5.2-9.5 4.5-0.6-0.7-0.9-1.8-1.5-2.6-0.6-0.7 1.4-3.7 0.8-4.5-0.6-0.7 6.3-7.7 5.7-8.5-0.6-0.7-5.3 1.9-5.9 1.1-0.6-0.7 1.3-3.5 0.7-4.2-0.6-0.8-5.5 1.9-6 1.1-0.6-0.8 2.1-4 1.5-4.8-0.6-0.8-0.6-1.9-1.2-2.7-0.6-0.8 0.2-2.5-0.4-3.2-0.6-0.8-7.8 3.3-8.3 2.6-0.6-0.8-5.1 1.2-5.6 0.5-0.6-0.8 8.6-8.5 8.1-9.3-0.6-0.8 0.3-2.5-0.3-3.3-0.5-0.8-9.5 4.2-10 3.4-0.5-0.8 7.5-7.4 7-8.2-0.5-0.8-5.4 1.3-5.9 0.5s-0.4-2-0.9-2.8c-0.5-0.8-8.8 3.3-9.4 2.5-0.5-0.8 0.6-2.7 0.1-3.5-0.5-0.8 2.6-3.9 2.1-4.7-0.5-0.8-2.4-0.8-2.8-1.7-0.5-0.8-2.1-1-2.6-1.8s4.7-4.9 4.3-5.8c-0.5-0.8-9.8 3.3-10.3 2.4-0.5-0.8 2.3-3.5 1.8-4.3-0.5-0.8-2.4-0.9-2.8-1.8-0.5-0.8 1.6-3 1.1-3.9-0.4-0.9-3.7-0.3-4.1-1.1-0.4-0.9-1.3-1.5-1.8-2.4-0.4-0.9 1.3-2.8 0.9-3.7-0.4-0.9 8-6 7.6-6.9-0.4-0.9-14.3 4.6-14.7 3.7-0.4-0.9 5.7-4.8 5.3-5.7-0.4-0.9 1.7-2.9 1.3-3.7-0.4-0.9 3.6-3.6 3.2-4.5-0.4-0.9-3.2-0.7-3.5-1.6-0.4-0.9-4.1-0.4-4.5-1.2-0.4-0.9-5-0.1-5.3-1-0.4-0.9 0.3-2.2-0.1-3.1-0.3-0.9-1.7-1.4-2-2.3-0.3-0.9-2.4-1.2-2.7-2.1-0.3-0.9 12-6.4 11.7-7.3-0.3-0.9-15.4 3.3-15.7 2.4-0.3-0.9 3.9-3.4 3.6-4.3-0.3-0.9 1.6-2.6 1.3-3.5-0.3-0.9 3.5-3.1 3.2-4-0.3-0.9-3.9-0.8-4.2-1.7-0.3-0.9-1.9-1.4-2.2-2.4-0.3-0.9-5.8-0.4-6.1-1.3-0.3-0.9 1.3-2.4 1-3.3-0.3-0.9-3.3-1.2-3.5-2.1-0.2-0.9 8.9-4.3 8.7-5.2-0.2-0.9-2.4-1.4-2.7-2.3-0.2-0.9-1.9-1.5-2.1-2.5-0.2-0.9-4.9-0.9-5.2-1.8-0.2-0.9 3.5-2.8 3.3-3.7-0.2-0.9 10.3-4 10.1-5-0.2-0.9-1.7-1.6-1.9-2.5-0.2-0.9-4.6-1.1-4.8-2-0.2-0.9 2.3-2.3 2.1-3.3-0.2-0.9 0.6-2 0.5-2.9-0.1-0.9-7.6-0.8-7.7-1.7-0.1-1 1.5-2.2 1.4-3.1-0.1-1 1.2-2.1 1.1-3-0.1-1-0.1-1.9-0.3-2.9-0.1-1 0.4-2 0.3-2.9-0.1-1-11-0.8-11.1-1.8-0.1-1 7.5-2.7 7.4-3.6-0.1-1-5.7-1.5-5.8-2.4-0.1-1 6.9-2.5 6.9-3.4-0.1-1 5.2-2.2 5.1-3.2-0.1-1-3.1-1.7-3.2-2.7 0-1 1.6-2 1.5-2.9 0-1 2.6-1.9 2.5-2.9 0-1-5.6-1.7-5.6-2.7 0-1-8.5-1.8-8.5-2.8 0-1 13.9-2 13.9-2.9 0-1-12.5-2-12.5-2.9 0-1 2.9-1.9 2.9-2.9s-3.4-2-3.4-3-0.1-2-0.1-2.9c0-1 3.4-1.8 3.5-2.8 0-1-3.5-2.2-3.5-3.1 0.1-1 12.9-1.1 12.9-2.1 0.1-1-7.6-2.5-7.5-3.4 0.1-1-2.1-2.1-2-3.1 0.1-1-3.5-2.3-3.4-3.3 0.1-1 10.3-0.9 10.4-1.8 0.1-1-10.4-3.1-10.3-4.1 0.1-1 4.1-1.5 4.2-2.4 0.1-1-1.4-2.2-1.3-3.1 0.1-1-1.1-2.2-1-3.1 0.1-1 12.8 0 12.9-0.9 0.2-1-9.3-3.5-9.1-4.4 0.2-0.9-2.3-2.4-2.1-3.4 0.2-0.9-1.4-2.3-1.3-3.2 0.2-0.9 16 1.1 16.2 0.2 0.2-0.9-1.9-2.3-1.7-3.2 0.2-0.9-0.7-2.1-0.5-3 0.2-0.9-5.8-3.3-5.6-4.2 0.2-0.9 4.8-0.8 5.1-1.8 0.2-0.9-0.5-2.1-0.2-3 0.2-0.9-7.5-3.9-7.3-4.9 0.2-0.9 8.8 0.3 9.1-0.6 0.3-0.9-6-3.7-5.8-4.6 0.3-0.9 2.1-1.4 2.4-2.4 0.3-0.9 10 1 10.3 0.1 0.3-0.9-12.8-6-12.5-6.9 0.3-0.9 12.7 2 13 1.1 0.3-0.9-6.6-4.2-6.3-5.1 0.3-0.9-4.4-3.6-4.1-4.5 0.3-0.9 7.5 0.5 7.8-0.4 0.3-0.9-6.6-4.5-6.2-5.4 0.3-0.9 13 2.7 13.3 1.8 0.3-0.9-0.1-2 0.3-2.9 0.3-0.9-8-5.2-7.6-6.1 0.4-0.9 10 1.9 10.3 1.1 0.4-0.9 0.9-1.6 1.3-2.5 0.4-0.9-1.3-2.6-0.9-3.5 0.4-0.9-1-2.5-0.6-3.4 0.4-0.9-6.6-5.1-6.2-6 0.4-0.9 7.9 1.5 8.3 0.6 0.4-0.9-6.4-5.2-6-6 0.4-0.9 8.1 1.8 8.6 0.9 0.4-0.9 0.4-1.9 0.8-2.8 0.4-0.9 0.6-1.8 1.1-2.7 0.4-0.9-6.6-5.6-6.1-6.4 0.4-0.9 3.6-0.3 4.1-1.2 0.5-0.8 2.9-0.6 3.4-1.5 0.5-0.8-2.4-3.6-1.9-4.4 0.5-0.8 13 5.1 13.5 4.3 0.5-0.8-6.5-5.9-6-6.7 0.5-0.8-4.1-4.7-3.6-5.5 0.5-0.8 9 3.1 9.5 2.3 0.5-0.8-2.8-4-2.3-4.8 0.5-0.8 1-1.7 1.5-2.5s-0.8-2.8-0.3-3.7c0.5-0.8 5.4 1.2 6 0.4 0.5-0.8-5.3-5.9-4.8-6.7 0.5-0.8 4.7 0.8 5.3 0 0.5-0.8 3-0.3 3.5-1.1s7.6 3 8.1 2.2c0.6-0.8-1.4-3.3-0.8-4 0.6-0.8 2.2-0.7 2.8-1.5 0.6-0.8-6.1-6.8-5.5-7.6 0.6-0.8 2.4-0.6 3-1.4 0.6-0.8 0.4-2.1 1-2.9 0.6-0.8 5.6 1.9 6.2 1.1 0.6-0.8-6.1-7.3-5.5-8 0.6-0.8 10.4 5.9 11 5.1 0.6-0.7 0.1-2.3 0.7-3.1 0.6-0.7-4.1-5.9-3.5-6.7 0.6-0.7 0.4-2.2 1.1-2.9 0.6-0.7 5.9 2.5 6.5 1.7 0.6-0.7 2.7-0.2 3.3-0.9 0.6-0.7-6.1-8-5.5-8.7 0.6-0.7 3.8 0.8 4.4 0.1 0.6-0.7 9.2 5.8 9.8 5.1 0.7-0.7-5.9-8.1-5.3-8.8 0.7-0.7-1.5-4.1-0.8-4.7l2.1-2.1c0.7-0.7 2-0.8 2.6-1.5 0.7-0.7 6.9 4.1 7.5 3.4 0.7-0.7-5.8-8.6-5.1-9.3 0.7-0.7 6.6 3.9 7.2 3.2 0.7-0.7-2-4.9-1.3-5.5 0.7-0.7 9.8 7.6 10.5 6.9 0.7-0.7-6.3-9.5-5.6-10.2 0.7-0.7 1.9-0.8 2.6-1.4 0.7-0.6 8.2 6.2 8.9 5.6 0.7-0.6-0.7-3.6 0.1-4.2 0.7-0.6 0.4-2.4 1.1-3 0.7-0.6-1.1-4.2-0.4-4.9 0.7-0.6 6.8 5 7.5 4.3 0.7-0.6-1.3-4.5-0.6-5.1 0.7-0.6 2.4-0.1 3.1-0.7 0.7-0.6-3.3-7.1-2.6-7.7 0.7-0.6 6.1 4.6 6.9 4 0.8-0.6 1.2-1.6 1.9-2.2 0.8-0.6-5.2-9.7-4.4-10.3 0.8-0.6 1.8-0.8 2.6-1.4 0.8-0.6 5.9 4.5 6.6 3.9 0.8-0.6 6.3 5.2 7 4.6 0.8-0.6-5-9.9-4.2-10.5 0.8-0.6 2.1-0.4 2.9-0.9 0.8-0.6-0.4-4 0.4-4.5 0.8-0.6 9.3 9.9 10.1 9.3 0.8-0.6-4.8-10.2-4-10.8 0.8-0.5 7.1 7 7.9 6.4 0.8-0.5 0.7-2.3 1.5-2.9 0.8-0.5-2.7-7.5-1.8-8 0.8-0.5 6.7 6.8 7.5 6.3 0.8-0.5-1.5-5.9-0.7-6.4s2.5 0.3 3.3-0.2c0.8-0.5 0.4-3 1.2-3.5 0.8-0.5-0.5-4.5 0.3-5s1.4-1.4 2.3-1.9c0.8-0.5 0.9-2.4 1.7-2.8 0.8-0.5 0.8-2.5 1.6-3s7.5 9.2 8.4 8.7c0.8-0.5 0.6-2.8 1.4-3.2 0.8-0.5 1-2.2 1.8-2.6 0.8-0.5 4.6 4.4 5.4 3.9 0.8-0.5-3.8-11-3-11.5 0.8-0.5 2.5 0.5 3.4 0.1 0.8-0.4 2.9 1.4 3.8 1 0.9-0.4 3.4 2.4 4.3 2 0.9-0.4 1.2-1.8 2.1-2.2 0.9-0.4 3.1 1.9 3.9 1.5 0.9-0.4-3.3-11.1-2.4-11.5 0.9-0.4 1-2.5 1.8-3 0.9-0.4 5.1 6.2 6 5.7 0.9-0.4 1.6-1.2 2.4-1.6 0.9-0.4 0.2-4.2 1.1-4.6 0.9-0.4 6.7 10.2 7.6 9.8 0.9-0.4 1.3-1.8 2.1-2.2 0.9-0.4 1.3-1.7 2.2-2.1 0.9-0.4 0.1-4.7 0.9-5.1 0.9-0.4 4.1 4.7 4.9 4.4 0.9-0.4 2-0.1 2.9-0.5 0.9-0.4 1.1-2.4 2-2.7 0.9-0.4-1.9-10-1-10.3 0.9-0.4 4.6 6.5 5.5 6.1 0.9-0.3-0.5-6.5 0.4-6.9 0.9-0.3 0.6-3.9 1.5-4.2 0.9-0.3 4.3 6 5.2 5.7 0.9-0.3 0-5.8 0.9-6.1 0.9-0.3 2.7 1.8 3.6 1.5 0.9-0.3 2.6 1.7 3.5 1.3 0.9-0.3 0.9-3.3 1.8-3.6 0.9-0.3 2.8 2.3 3.7 2 0.9-0.3-0.9-8.9 0.1-9.2 0.9-0.3 5.5 10.9 6.4 10.6 0.9-0.3-1.7-11.9-0.8-12.2 0.9-0.3 5.5 11.5 6.5 11.2 0.9-0.3 0.9-3.7 1.8-3.9 0.9-0.3 2.9 3 3.8 2.7 0.9-0.3-1.9-13.8-1-14 0.9-0.3 4.8 9.9 5.7 9.6 0.9-0.3 2.9 3.4 3.8 3.2 0.9-0.3-0.6-9.8 0.3-10.1 0.9-0.2 3 4 4 3.8 0.9-0.2 2.5 2.3 3.5 2 0.9-0.2 1.1-3.3 2.1-3.5 0.9-0.2 0-8.3 0.9-8.6 0.9-0.2 3.7 7.3 4.6 7.1 0.9-0.2-0.1-9.1 0.8-9.3 0.9-0.2 2.8 3.5 3.7 3.3 0.9-0.2 2.8 3.8 3.7 3.6 0.9-0.2 3 5 3.9 4.8 0.9-0.2-0.9-14.3 0-14.5 0.9-0.2 3.3 6.8 4.3 6.7 0.9-0.2 3.4 7.9 4.4 7.7 0.9-0.2 1.5-2.2 2.5-2.3 0.9-0.2 0.1-10.2 1.1-10.4 0.9-0.2 2.2 1.5 3.2 1.4 0.9-0.2 1.3-4 2.3-4.1 0.9-0.2 3.8 11.3 4.7 11.1 1-0.1-0.1-13.5 0.8-13.6 1-0.1 2.6 4.3 3.6 4.2 1-0.1 3.1 8.1 4 8 1-0.1 0.3-12.3 1.2-12.4 1-0.1 2.4 3.5 3.4 3.3 1-0.1 1.7 1.3 2.7 1.2 0.7-0.7-3.6-6-2.9-6.6 0.7-0.7 11.6 9.7 12.4 9.1 0.7-0.6-7.5-11.4-6.8-12 0.7-0.6 10.8 9.8 11.5 9.2 0.7-0.6-0.4-3.3 0.3-3.9 0.7-0.6-5.1-9.6-4.3-10.2 0.8-0.6 2.1-0.6 2.8-1.1 0.8-0.6 8.7 8.9 9.5 8.4 0.8-0.5 0.4-2.5 1.2-3.1 0.8-0.5 2-0.2 2.8-0.7 0.8-0.5 0.7-2.2 1.5-2.7s-1.3-5.7-0.5-6.2 5.7 6.1 6.6 5.6c0.8-0.5-3.4-9.8-2.6-10.3 0.8-0.5 2.6 0.8 3.5 0.3 0.8-0.4 3.9 3.5 4.8 3 0.8-0.4-3.2-10.7-2.4-11.2 0.9-0.4 7.5 11.2 8.4 10.8 0.9-0.4-4.1-13.3-3.2-13.7 0.9-0.4 5.6 7.9 6.5 7.5 0.9-0.4-1.9-9.3-1-9.7 0.9-0.4 3.4 3.1 4.3 2.8 0.9-0.4 2.8 1.9 3.7 1.6 0.9-0.3 3.7 4.6 4.6 4.2 0.9-0.3-0.7-7.5 0.2-7.8 0.9-0.3 0.2-5.4 1.2-5.7 0.9-0.3 3.6 4.7 4.5 4.5 0.9-0.3 1.5-1.5 2.5-1.8 0.9-0.3 2.9 3.1 3.8 2.9 0.9-0.3 2.4 1.7 3.3 1.5 0.9-0.2-1.2-12.4-0.3-12.7 0.9-0.2 2.4 1.3 3.3 1.1 0.9-0.2 2.3 1.3 3.3 1.1 0.9-0.2 2.2 0.9 3.1 0.7 0.9-0.2 3.4 7.2 4.3 7.1 0.9-0.2 2.1 1.3 3 1.2 0.9-0.2-0.2-12.6 0.7-12.8 0.9-0.2 3.5 10.4 4.5 10.3 0.9-0.1 1.9 0.7 2.9 0.6 0.9-0.1 0.4-11.9 1.4-12 1-0.1 1.7-2.2 2.6-2.3 1-0.1 2.9 7.8 3.8 7.7 1-0.1 1.6-2.8 2.5-3 1-0.1 2.7 6 3.6 5.8 1-0.1 0.7-10.1 1.6-10.2 1-0.1 2.9 7.6 3.8 7.5 1-0.1 1.4-4.5 2.3-4.7 1-0.1 2.4 3.5 3.3 3.4 1-0.1 2.1 1.4 3.1 1.2 1-0.1 0.9-7.9 1.9-8 1-0.1 2 0.8 3 0.7 1-0.1 3.1 9.4 4.1 9.3 1-0.1 0.5-11.3 1.5-11.4 1-0.1 2.9 8 3.9 7.9 1-0.1 2.4 3.7 3.3 3.6 1-0.1 1.3-5 2.3-5.1 1-0.1 1.4-4.5 2.3-4.7 1-0.1 2.5 4.8 3.4 4.7 1-0.1 1.2-6.2 2.2-6.3 1-0.1 2.1 1 3 0.9 1-0.1 2.1 1.5 3 1.4 1-0.1 2.7 7.7 3.7 7.6 1-0.1 0.5-14.4 1.4-14.5 1-0.1 2.3 4.2 3.3 4.1 1-0.1 2.7 8.3 3.6 8.2 1-0.1 0.9-12.8 1.8-12.9 1-0.1 2 0.5 3 0.5 1-0.1 2.2 3.5 3.1 3.4 1-0.1 2.3 7 3.3 6.9 1-0.1 2 2.2 2.9 2.1 1 0 1.8-0.7 2.8-0.8 1 0 1.8-2 2.7-2.1 1 0 1.8-11.7 2.7-11.7 1 0 1.9 8.7 2.9 8.7s1.7 5.1 2.7 5.1c1 0 2.2-9.1 3.2-9 1 0 1.6 5.8 2.5 5.9 1 0.1 2.1-2.3 3-2.2 1 0.1 1.9 0.3 2.8 0.4 1 0.1 1.1 5.2 2 5.4 1 0.1 1.3 2 2.3 2.2 1 0.2 1.5 0.4 2.5 0.7 0.9 0.2 5.6-14.3 6.5-14 0.9 0.3-1.8 12.7-1 13 0.9 0.3 5-8.1 5.8-7.7 0.9 0.4 3.6-2.6 4.4-2.2 0.9 0.4-3.4 11.1-2.6 11.6 0.8 0.5 3.3-2.1 4.1-1.6 0.8 0.5 6.4-5.2 7.1-4.6 0.8 0.6-4.2 8.3-3.5 8.9 0.7 0.6-1.9 4.1-1.2 4.8 0.6 0.7 4.3-1.6 4.9-0.8 0.6 0.7 7.3-2.7 7.9-1.9 0.5 0.8-5.3 5.6-4.9 6.4 0.5 0.8-4.7 4.1-4.3 5 0.4 0.9 10.4-2.5 10.7-1.6 0.3 0.9 5.8 0.3 6.1 1.3 0.3 0.9-14.3 6-14.1 7 0.2 0.9 0.7 1.4 0.9 2.3 0.2 0.9-0.8 1.6-0.6 2.5 0.1 1 1.1 1.4 1.2 2.3 0.1 1 0 1.5 0 2.5s5.9 1.9 5.9 2.9c-0.1 1 6.2 2.6 6.1 3.6-0.1 0.9-11.2 0.3-11.4 1.2-0.2 0.9 11.6 4.3 11.4 5.3-0.2 0.9-4.9 0.9-5.2 1.9-0.3 0.9-8.6-0.7-8.9 0.2-0.3 0.9-1.3 1.2-1.7 2.2-0.3 0.9 3.3 3.1 2.9 4-0.4 0.9-4 0.1-4.4 1-0.4 0.9 0.5 2.1 0 3-0.4 0.8 5.7 5.2 5.3 6-0.5 0.8 1.2 3 0.7 3.9-0.5 0.8-2.6 0.8-3.1 1.6s-8.1-3.1-8.7-2.3c-0.5 0.8 3.6 4.8 3 5.5-0.6 0.8-6.3 3.1-6.9 3.9 0.9 0.4 9.9-7.4 10.8-7 0.9 0.4 0.3 4.4 1.2 4.8 0.9 0.4 3.3-2.9 4.2-2.5 0.9 0.4-2 9.6-1.1 10 0.9 0.4 1.9 0.4 2.8 0.8 0.9 0.4 0.8 2.8 1.7 3.2 0.9 0.4 4.4-5.2 5.3-4.8 0.9 0.4-0.7 6.1 0.2 6.5 0.9 0.4 1.4 1.5 2.2 1.9 0.9 0.4 6.2-8.6 7-8.2 0.9 0.4 1.1 2.3 1.9 2.7 0.9 0.4 2.9-1.4 3.7-1 0.9 0.4 2 0.4 2.8 0.8 0.9 0.4-2.8 9.8-1.9 10.2 0.9 0.4 1.7 0.8 2.6 1.2 0.9 0.4 4.9-5.3 5.8-4.9 0.8 0.4-3.1 10-2.3 10.5 0.8 0.5 3.8-3 4.6-2.6 0.8 0.5 0.5 3 1.4 3.4 0.8 0.5 2.4-0.4 3.2 0.1 0.8 0.5-1.2 6-0.4 6.5 0.8 0.5 7.3-8.9 8.1-8.4 0.8 0.5 2.7-0.7 3.5-0.3 0.8 0.5-2.6 8.2-1.8 8.7s-1 5.3-0.2 5.8 5.1-4.8 6-4.3c0.8 0.5-0.4 4.3 0.4 4.8s3.5-2 4.3-1.4c0.8 0.5 4.8-3.9 5.6-3.4 0.8 0.5-1.7 6.2-0.9 6.7 0.8 0.5 6.2-5.9 7-5.3 0.8 0.5-3.3 8.4-2.5 8.9 0.8 0.5-0.2 3.7 0.6 4.2s2.8-0.8 3.6-0.3c0.8 0.5 2.4 0 3.1 0.5 0.8 0.6 4.7-3.3 5.5-2.8 0.8 0.6-0.5 4 0.3 4.6 0.8 0.6 5.8-4.6 6.6-4.1 0.8 0.6 2.1 0.5 2.8 1.1 0.8 0.6-4.3 9-3.5 9.5 0.8 0.6 2.3 0.2 3 0.8 0.8 0.6-2.3 6-1.5 6.6 0.8 0.6 2.5-0.1 3.3 0.4 0.8 0.6 3.7-1.6 4.4-1 0.7 0.6-2 5.5-1.3 6.1 0.7 0.6 2.1 0.4 2.9 1 0.7 0.6 7.8-6.4 8.5-5.7 0.7 0.6-1.8 5.1-1 5.7 0.7 0.6 0.9 1.9 1.6 2.5 0.7 0.6 5.9-3.8 6.6-3.2 0.7 0.6-4 7.5-3.3 8.1 0.7 0.6 3.6-1.2 4.3-0.5 0.7 0.6 4.2-1.7 4.9-1 0.7 0.6 4.4-1.9 5.1-1.2 0.7 0.7-7.8 11.1-7.1 11.8 0.7 0.7 5.9-3.4 6.6-2.7 0.7 0.7 3.5-0.8 4.2-0.1 0.7 0.7 1.9 0.9 2.6 1.6 0.7 0.7-5.6 8.3-4.9 9 0.7 0.7 4.8-2 5.4-1.3 0.7 0.7 3.5-0.7 4.2 0 0.7 0.7 1.5 1.3 2.1 2 0.7 0.7 0.1 2.5 0.8 3.2 0.7 0.7 2.4 0.4 3.1 1.1 0.6 0.7-5.3 7.3-4.6 8.1 0.6 0.7 6.4-3.2 7.1-2.5 0.6 0.7 0.3 2.3 0.9 3 0.6 0.7-1.6 3.9-1 4.6 0.6 0.7 1.2 1.5 1.8 2.2 0.6 0.7 7.9-4.1 8.5-3.3 0.6 0.7 2.9 0.2 3.5 0.9 0.6 0.7-7.9 8.9-7.3 9.6 0.6 0.7 9.4-5.1 10-4.3 0.6 0.8-6 7.2-5.4 7.9 0.6 0.8 3.4-0.2 4 0.5 0.6 0.8 5.4-1.6 5.9-0.9 0.6 0.8 1.1 1.6 1.6 2.4 0.6 0.8-2.7 4.3-2.1 5.1 0.6 0.8 6.1-2 6.7-1.2 0.6 0.8-9 8.7-8.5 9.5 0.5 0.8 5.2-1.3 5.7-0.5s5.4-1.4 6-0.6c0.5 0.8-0.9 2.9-0.3 3.7 0.5 0.8-4.5 5.2-4 6 0.5 0.8 10.3-4.3 10.8-3.5 0.5 0.8-9.9 8.5-9.4 9.3 0.5 0.8 8.7-3.2 9.2-2.4 0.5 0.8 5.9-1.3 6.4-0.5s-12.3 9.6-11.8 10.4c0.5 0.8 4-0.2 4.4 0.7 0.5 0.8 5.5-1 6-0.1 0.5 0.8 6.8-1.6 7.3-0.7 0.5 0.8-4.7 4.8-4.3 5.7 0.5 0.8-1.3 2.9-0.8 3.7 0.4 0.8-2.3 3.3-1.9 4.2 0.4 0.9-0.5 2.4-0.1 3.2 0.4 0.9 3.3 0.4 3.7 1.3 0.4 0.9 9.1-2.3 9.5-1.5 0.4 0.9 1.4 1.5 1.8 2.4 0.4 0.9-10.8 7.2-10.4 8 0.4 0.9 0.7 1.7 1.1 2.6 0.4 0.9 9.4-2.1 9.8-1.2 0.4 0.9-3.6 3.7-3.3 4.6 0.4 0.9-4.9 4.1-4.5 5 0.4 0.9 10.6-2.3 11-1.5 0.4 0.9-3.2 3.4-2.8 4.2 0.4 0.9-3.3 3.3-3 4.2 0.3 0.9 7-0.6 7.3 0.3 0.3 0.9 7.5-0.7 7.8 0.2 0.3 0.9 0.9 1.8 1.2 2.7s-11 5.9-10.6 6.8c0.3 0.9 6.8-0.3 7.1 0.6 0.3 0.9 1.3 1.6 1.6 2.5 0.3 0.9-9.1 4.9-8.8 5.8 0.3 0.9 14.9-2.5 15.1-1.6 0.3 0.9-4.2 3.3-3.9 4.2 0.3 0.9-8.7 4.4-8.4 5.4 0.3 0.9 7.5-0.1 7.8 0.8 0.2 0.9-0.1 2 0.2 2.9 0.2 0.9-5.7 3.4-5.4 4.3 0.2 0.9 9.3-0.3 9.5 0.6 0.2 0.9 0.8 1.8 1.1 2.7 0.2 0.9-2.8 2.6-2.6 3.5 0.2 0.9 7.4 0.4 7.6 1.4 0.2 0.9-11.5 4.3-11.3 5.2 0.2 0.9 4.2 1.1 4.4 2.1 0.2 0.9-3.6 2.6-3.5 3.5 0.2 0.9 2.9 1.4 3.1 2.3 0.2 0.9-4.7 2.7-4.6 3.6 0.1 0.9 6.5 0.9 6.6 1.9 0.1 0.9 1.8 1.7 1.9 2.6 0.1 0.9 1.1 1.8 1.2 2.7 0.1 0.9-8 2.9-7.9 3.8 0.1 1 14.9 0.2 15 1.2 0.1 1-12.2 3.2-12.1 4.1 0.1 1 10.6 0.9 10.7 1.9 0.1 1-8.2 2.6-8.2 3.6 0.1 1 1.3 1.8 1.4 2.8 0.1 1-2.9 2.1-2.9 3 0.1 1 5.2 1.6 5.2 2.6s-3.2 2-3.1 3c0 1 8 1.7 8.1 2.6 0 1-7.2 2.1-7.2 3.1s4.8 1.8 4.8 2.8c0-0.2 3.7 0.8 3.7 1.7z" fill="#90887D" p-id="4377"></path><path d="M517.2 946.4c-1.7 0-4.7-0.4-7.2-3-2.2-0.2-3.9-1.1-5.2-2.3-1.4 0.8-3.1 1.3-5.3 1.3-1.3 0-2.4-0.3-3.4-0.6-2.8 3.8-6.7 4.1-8.6 4.1-1.7-0.1-3-0.5-3.9-0.7-2.1-0.3-3.8-1.1-5.1-2.2-1.4 0.7-3.4 1.4-6 1.2-2.4-0.2-4.3-1-5.7-2.2-2.6 1.5-5.2 1.5-6.2 1.4-2.6-0.3-4.6-1.4-6-2.6-1.6 0.8-3.5 1.2-5.8 1-2.8-0.3-4.8-1.6-6.2-2.9-2.4 1.1-4.6 0.9-5.6 0.8h-0.1c-1.7 0.8-3.7 1.3-6.1 0.9-4-0.6-6.2-2.9-7.5-5.4-0.3-0.1-0.5-0.2-0.8-0.3-0.1 0-0.1-0.1-0.2-0.1-0.4-0.1-0.9-0.2-1.5-0.4-2.9 2-5.9 1.8-7.4 1.5-3.9-0.8-6-3.1-7.2-5.6-0.3 0-0.6 0.1-1 0.1-3.5 3.7-7.6 3.3-9.6 2.8-1.5-0.4-2.7-0.9-3.7-1.6-1.4 0.3-3.1 0.4-5.1-0.1-3.2-0.8-8.4-3.5-7.6-12.9v-0.3c-2 1.1-4.4 1.5-7.4 0.6-1.5-0.4-2.7-1.1-3.6-1.9-1.5 0.3-3.1 0.2-4.9-0.3-1.9-0.6-3.4-1.5-4.4-2.7-4.1 5.1-8.9 4.6-11.5 3.6-5-1.7-6.5-5.9-7-9.2-1.1-0.5-2-1.1-2.8-1.8-1.5 0.2-3.1 0-4.9-0.7-0.3-0.1-0.6-0.2-0.9-0.4h-0.6c-1.6 0.5-4.2 1-7.1 0-3 1.1-5.6 0.3-7.1-0.3-0.1 0-0.3-0.1-0.4-0.1-0.6-0.2-1.5-0.5-2.5-0.9-0.8-0.3-2.4-1.2-3.8-2.8-3.6 1.5-6.8 0.3-8-0.2-1-0.5-3.4-1.9-4.9-4.8-0.8-0.2-1.6-0.5-2.4-0.9-2.7-1.3-4.2-3.3-5-5.3-2.2 0.8-5.4 1.3-8.8-0.5-2.3-1.2-5.5-3.9-5.3-9.4-1.8 0.1-3.7-0.2-5.8-1.4-0.4-0.3-1-0.6-1.6-1.1-0.6-0.1-1.2-0.2-1.7-0.4-2.7 1.2-5.9 1.5-9.4-0.6-1.5-0.9-3.5-2.6-4.3-5.3-0.4-0.3-0.9-0.7-1.4-1.2-3.3 0.5-5.9-0.9-6.9-1.6-4.1-2.7-4.8-6.7-4.6-9.8-4.6 1.9-8.2 0-9.8-1.1-0.9-0.6-1.6-1.4-2.2-2.1-0.9-0.3-1.8-0.8-2.7-1.5-1.8-1.3-2.8-2.9-3.4-3.9-1.7-1.9-2.4-4.1-2.7-5.5-0.4-0.9-0.7-1.8-0.9-2.6-2.4 0.3-5.5 0.1-8.4-2.3-1.3-1.1-2.2-2.3-2.8-3.5-1.4-0.4-2.8-1-4.1-2.2-0.4-0.3-1-0.9-1.5-1.7-1.6-0.6-2.7-1.5-3.3-1.9-1.4-1.2-2.2-2.6-2.8-3.9-3.7 0.2-6.3-1.6-7.5-2.8-3.4-3.2-3.5-7-3-9.9-3.1 0.8-6.7 0.6-10-2.7-1.2-1.2-3.3-4-2.8-8.1l-0.9-0.9c-1.3-1.4-2-2.8-2.4-4.3-3.8-0.2-6.2-2.5-7-3.5-1.1-1.3-1.8-2.6-2.1-3.3-2.9-4.1-1.8-8.5-1.1-10.7 0-0.3 0-0.6 0.1-0.9-1.2-0.6-2.4-1.5-3.4-2.9-1.1-1.4-1.7-2.8-2-4.1-2.9 0.6-8.6 1.3-12.3-3.9-1-1.4-2.6-4.5-1.6-8.4-0.3-0.4-0.6-0.7-0.8-1-0.4-0.6-1.1-1.9-1.5-3.5-4.7-0.4-7.1-3.5-7.9-4.7-2-3.2-1.8-6.3-1.4-8.2v-1.4c-0.3-0.3-0.5-0.5-0.8-0.9-4.4-0.7-6.5-3.8-7.2-5.1-1.3-2.4-1.5-4.6-1.2-6.6-0.3-0.7-0.6-1.3-0.8-2-0.6-0.6-1.3-1.3-1.8-2.2-0.6-0.7-1.5-1.7-2.2-3.2-0.3-0.6-0.5-1.2-0.7-1.8-3.2-1.1-4.8-3.5-5.6-5.2-2.5-5.4 0-9.5 2.6-12.2-2.4-0.8-5-2.5-6.3-6-0.3-0.8-0.5-1.7-0.7-2.4-1.4-1-3.2-2.6-4.2-5.2-2.4-1.4-3.6-3.6-4.1-5.3-1.6-4.7 0.4-8.4 2.4-10.7-2.8-0.9-5.8-2.8-6.9-7.1-0.1-0.5-0.2-0.9-0.3-1.4-1-1.1-1.8-2.5-2.2-4.3-0.3-1.2-0.8-4.4 1-7.6-1.1-1.2-1.9-2.7-2.3-4.7-1.3-6.1 2.9-9.9 4.8-11.5 0.5-0.7 1.1-1.4 1.9-2.1 0-0.3-0.1-0.5-0.1-0.8-2.4-1.3-4.5-3.5-5.1-7.4-0.3-1.9 0-3.5 0.4-4.9-7.5-1.5-8.9-6.9-9.1-9.3-0.3-2.8 0.4-4.9 1.6-6.6-0.3-6.2 4.2-9.1 7.6-10.6-4-1.2-8.9-3.7-8.9-10.3 0-1.5 0.2-3.4 1.4-5.3v-0.8c0-0.7 0.1-1.4 0.2-2.1-0.4-1.2-0.7-2.5-0.6-4v-0.7c0-0.6-0.1-1.5 0-2.4 0-0.9 0.2-1.7 0.4-2.5-0.3-1.1-0.5-2.3-0.4-3.6 0.1-1.3 0.4-3.3 1.8-5.3-1.2-1.7-2.1-4-1.8-6.9 0-0.5 0.2-1.2 0.5-2.1-0.5-1.7-0.4-3.2-0.3-4 0.3-2.2 1.1-3.8 2.1-5.1-0.2-1.1-0.3-2.4-0.1-3.8 0.2-1.1 0.6-2.9 1.9-4.6-0.9-1.6-2-4.3-1.4-7.7 0.5-2.7 2.3-6.8 8.2-8 0-0.8 0.1-1.7 0.3-2.6 0-0.1 0.1-0.3 0.1-0.4-2.1-2.2-3.6-5.3-2.5-9.5 0.7-2.5 1.9-4.2 3.4-5.4 0.2-0.7 0.5-1.4 0.8-1.9-1.5-2.9-1.1-5.7-0.6-7.5 0.3-1 1-2.5 2.3-3.9-0.2-1.5-0.1-3.1 0.5-4.8 0.3-0.8 0.6-1.5 1-2.1 0-1.2 0.2-2.5 0.7-3.8 0.6-1.6 2.1-4.4 5.5-5.8 0.1-0.7 0.3-1.3 0.5-1.7 0.4-1.1 1.7-3.7 4.7-5.2-1.6-2.5-2.3-5.7-0.6-9.5 0.4-0.9 0.9-1.8 1.5-2.4 0.2-1.5 0.6-2.6 0.9-3.2 1-2 2.2-3.4 3.6-4.3-0.6-2.1-0.5-4.5 0.9-7.1 1.2-2.3 2.9-3.7 4.6-4.5 0.2-0.9 0.6-1.8 1.1-2.8 0.5-1 1.4-2.1 2.5-3.1 0-1.6 0.4-3.3 1.5-5.1 0.7-1.2 2.8-4.1 7-4.8 0.2-1.1 0.5-2.3 1.2-3.5-0.4-2.2 0-4.5 1.6-7 3.4-5.1 8.9-4.9 11.6-4.5 0.1 0 0.2 0 0.2-0.1-0.8-4 1-6.9 1.8-8 0.9-1.2 1.9-2.1 2.9-2.7-1.1-4.4 1-7.7 1.9-8.8 1.1-1.3 3.4-3.6 7.3-3.8 0.4-1.2 1-2.6 2.2-4 0.6-0.7 1.3-1.3 1.9-1.8 0.2-3.2 1.8-5.4 2.6-6.2 1.8-2 3.8-2.9 5.7-3.3 0.3-1.8 1.1-3.6 2.7-5.3 0.4-0.5 0.9-0.9 1.4-1.4l0.8-0.8c0.8-0.8 1.6-1.4 2.3-1.8 0.4-3 2.1-5 2.9-5.7 2.1-2.1 4.5-2.9 6.6-3 0.8-0.7 2-1.5 3.6-1.9 0.3-0.4 0.6-0.7 0.9-0.9 1.5-1.4 3.2-2.2 4.1-2.6 1.3-0.8 3.2-1.6 5.6-1.6 0.5-1.4 1.5-2.8 2.9-4.1 1.3-1.1 2.7-1.8 4-2.2 0.1-2.4 1.1-5 3.7-7.1 0.2-0.2 0.4-0.3 0.7-0.5-0.1-4.4 2.5-7.1 3.9-8.2 1.3-1 2.5-1.6 3.3-1.9 2.9-2 5.8-2 8.4-1.3 0.5-2 1.7-4.2 4.1-5.9 1.2-0.9 3.6-2.1 6.7-1.8 0.9-0.5 2.4-1.2 4.3-1.4 0.7-1 1.6-2 2.9-2.8 1-0.7 3.6-2.1 7-1.6 0.4-2.4 1.4-5.1 4.2-7l0.2-0.2c0.3-0.6 0.7-1.4 1.3-2.1 0.7-1.7 2-4.2 4.9-5.9 1.7-1 5.5-2.5 9.9-0.1 1.2-2.7 3.2-4.1 4.5-4.8 2.9-1.6 5.7-1.4 7.5-1.1 0.8-0.1 1.5 0 2.2 0 0.2-2.3 1-4.1 2-5.4 0.7-1.7 2.3-4.4 5.5-5.9 3.4-1.6 6.3-1.2 8.7 0 0.3-0.2 0.6-0.3 1-0.5 1.9-0.9 6.3-2.2 10.8 1.6 0.6-0.5 1.4-0.9 2.2-1.3 0.9-0.4 1.8-0.6 2.6-0.8 0.7-5.7 4.9-7.9 6.4-8.5 0.8-0.3 1.6-0.5 2.4-0.7 1-1.7 2.7-3.4 5.3-4.4 2.3-0.8 4.3-0.9 6-0.4 0 0 0.1 0 0.1-0.1 2.3-0.8 4.5-0.7 6.2-0.3 0.6-3.2 2.4-6.3 6.8-7.8 0.8-0.3 2-0.5 3.3-0.5 0.9-0.6 1.8-0.9 2.4-1.1 1.2-0.4 3.3-0.8 5.7-0.1 1.6-2.4 3.9-3.5 5.6-4 1.9-0.5 6.2-1.1 10 2.6 1.3-0.3 2.5-0.4 3.6-0.3 1-2.7 3.1-5.1 7-6 0.5-0.1 1-0.2 1.4-0.2 1.7-1.3 3.4-1.9 4.2-2.1 2.3-0.5 4.3-0.2 5.9 0.4 1.7-2.1 4-2.9 5.7-3.3 4.2-0.8 7.1 0.7 9.2 2.8 1.3-0.7 2.6-1.1 3.2-1.2 1.3-1.3 3.1-2.4 5.6-2.8 0.1 0 0.2 0 0.3-0.1 1.9-1.7 4-2.3 5.3-2.5 2.2-0.3 4.1 0 5.7 0.7 0.2-0.1 0.5-0.2 0.7-0.3l0.2-0.2c1.2-1.1 2.9-2.4 5.3-2.7 0.2-0.2 0.4-0.3 0.5-0.5 1.2-1 3.1-2.2 5.5-2.5 0.9-1.5 1.9-2.4 2.5-2.9 1.7-1.3 3.5-1.9 4.5-2.2 2.2-1.1 5.7-1.9 9.9 0.5 0.7-1.6 1.9-3.1 3.9-4.3 1.2-2.8 3.4-4.3 4.4-4.9 0.2-0.1 0.5-0.3 0.7-0.4 0.6-4.7 3.9-6.8 5.6-7.7 0.6-0.3 1.4-0.6 2.3-0.8 1.1-1.1 2.3-1.8 3.2-2.2 0.6-0.3 1.8-0.7 3.4-0.9 1-0.8 1.9-1.2 2.4-1.4 3.4-1.4 6.3-0.8 8.6 0.3 1-2.2 2.8-4.4 6.1-5.4 3-1 5.5-0.6 7.5 0.4 1.6-4.4 5.2-5.8 7-6.3 3.4-0.9 6.3 0.2 7.9 1 1.3 0.2 2.4 0.7 3.2 1.1 0.3 0 0.6 0.1 0.8 0.2 2-2.9 5-3.8 6.6-4 0.9-0.1 2.7-0.3 4.7 0.4 1.3-1.4 3.6-3.4 7.1-3.8 3.2-0.4 5.5 0.5 7.3 1.9 1.7-1.1 3.4-1.4 4.2-1.5 3.6-0.4 6.2 0.8 8.1 2.6 1.4-1.6 3.4-2.8 6.2-3.2 1.6-0.2 3 0 4.1 0.2 1.7-1.1 3.4-1.5 4.4-1.6 3.8-0.5 6.5 0.9 8.4 2.8 1-0.5 2.2-0.9 3.5-1 0.4 0 0.8-0.1 1.2-0.1 1.2-0.8 2.7-1.3 4.5-1.5 1.4-0.2 2.6 0 3.6 0.2 2.1-3.6 5.4-4.6 7.7-4.8 1.8-0.2 3.4 0.1 4.8 0.6 1.6-0.9 3.1-1.1 4.1-1.2 2-0.2 3.6 0.2 4.6 0.5 3.5 0.2 5.9 2.2 7.5 3.9 2.5-5.3 7.1-6 9.2-6 1.5 0 5.8 0.4 8.7 4.8h0.6c3.6 0.2 6 1.9 7.5 3.9 0.3 0 0.5 0.1 0.7 0.1 0.3 0 0.5 0.1 0.8 0.1 0.9 0.1 1.7 0.3 2.4 0.6 3.9-7.1 9.3-6.9 12.3-6.1 1.2 0.3 3.1 1.1 4.7 2.8 1.8-0.3 4-0.2 6.2 0.9 1 0.5 3.2 1.8 4.6 4.3 1.9 0 3.9 0.6 5.9 2.2 1.2 0.9 4.3 3.9 3.9 9 2.3 0.4 4.6 1.7 6.4 4.4 1.5 2.4 1.9 4.6 1.6 6.7 2.8 0.8 5.9 2.7 7.2 6.9 1 3.2 1.4 9.3-7.4 13.4-0.8 0.4-1.7 0.8-2.6 1.2 0.1 0.1 0.3 0.2 0.4 0.4 0.1 0 0.1 0.1 0.2 0.1 2.7 1.2 10 4.3 9.1 12.2-0.1 0.4-0.2 1.1-0.4 1.8 0.8 2.3 0.6 4.4 0.3 5.6-1.5 6.5-7.5 8-10 8.5-0.9 0.5-2 0.9-3.2 1.2 0 0.1-0.1 0.2-0.1 0.3 0 0.1-0.1 0.2-0.1 0.2 1 1.5 1.7 3.3 1.9 5.2 0.4 1.3 0.9 3.2 0.7 5.4 0.2 0.7 0.4 1.5 0.5 2.3 0.9 0.1 1.8 0.4 2.7 0.8 0.3 0.1 0.6 0.3 0.8 0.4 4-2 7.6-0.7 8.8-0.1 0.4 0.2 0.8 0.4 1.2 0.7 1.2 0 2.4 0.2 3.7 0.7 0.9 0.2 2.2 0.5 3.8 1.2 1.1 0.6 3.9 2.3 5.1 6 0.5 0.2 1 0.4 1.5 0.7 1.4 0.8 5.5 3.4 5.4 9.3 1.7-0.9 3.4-1.2 4.8-1.1 1.9-0.4 5.1-0.8 8.4 1.2 4.2 2.5 5.2 6.2 5 9.6 2.6-1.1 5.8-1.5 9.2 0.5 2-0.2 4.2 0.2 6.6 1.7 1.2 0.8 4.7 3.6 4.6 8.9 1.4 0 2.9 0.2 4.4 0.9 2.2-0.6 4.6-0.6 7.1 0.7 1.1 0.3 2.8 0.8 4.5 2.1 1.5 1.1 6.2 5.4 2.9 13.4-0.1 0.2-0.2 0.5-0.3 0.7 0.1 0.3 0.2 0.5 0.3 0.8 0.9 0.3 1.9 0.8 2.8 1.6 5.4-2.1 9.3 0.6 10.5 1.6 1 0.8 1.8 1.8 2.3 2.7 1.7 0.3 3.4 1 5.1 2.4 1 0.9 1.8 1.9 2.3 2.9 2.6-0.4 5.9-0.1 8.9 2.6 1.3 1.2 3.6 4.1 3.1 8.3 0.9 0.5 2.1 1.2 3.3 2.3 0.8 0.8 2.6 3 2.9 6.2 0.7 0.4 1.3 0.9 1.9 1.6 0.1 0.1 0.2 0.2 0.4 0.3 0.5 0.4 1.1 1 1.8 1.7 0.8 0.8 1.4 1.7 1.8 2.6 0.7 0.5 1.5 1.1 2.2 1.8 0.7 0.8 2.3 2.8 2.6 5.7 0.9 1 1.5 2.1 1.9 3.1 1.5-0.1 3 0 4.4 0.6 2 0.2 5.2 1 7.6 4 0.7 0.9 1.8 2.5 2.2 4.7l0.7 0.7c0.6 0.8 1.9 2.7 2.2 5.4 0.9 0.6 1.7 1.4 2.5 2.4 0.5 0.7 0.9 1.3 1.2 1.8 0.2 0.2 0.3 0.5 0.5 0.7 0.1 0.2 0.2 0.3 0.3 0.5 1.6 0.6 3.1 1.7 4.4 3.5 0.9 1.2 2.2 3.6 1.9 6.8 0.5 0.5 1.1 1.1 1.5 1.8 0.5 0.7 0.9 1.5 1.2 2.2 2.9 0.9 4.6 3 5.4 4.2 0.4 0.6 0.8 1.4 1.1 2.3 1.9 0.7 3.8 2 5.3 4.4 0.9 1.4 1.7 3.6 1.4 6.2 1.7 0.8 3.3 2.1 4.6 4.3 2.6 4.6 1 8.7-1 11.5 3.6 0.6 5.7 2.8 6.7 4.3 0.7 0.7 1.8 1.9 2.6 3.7 0.7 1.6 1.8 4.8 0.1 8.5 0.3 0.5 0.5 0.8 0.6 1.1 0.8 1.7 1 3.4 0.9 4.8 1.4 1.3 2.1 2.8 2.4 3.5 0.4 0.9 0.6 1.8 0.7 2.6 3.4 0.4 7 2 8.8 6.7 0.1 0.1 0.1 0.3 0.2 0.5 0.3 0.6 0.7 1.4 1 2.3 0.6 1.6 1.3 5-0.8 8.4 3.2 1.5 4.6 4.2 5.2 6.2 1.8 5.8-1.9 9.9-4.2 11.9 0.1 0.3 0.1 0.7 0.1 1 2.3 1.7 3.4 3.9 3.8 5.3v0.1c0.2 0.3 0.4 0.8 0.6 1.3 2.6 1.2 4.9 3.3 5.7 7.2 0.5 2.4 0.8 8.5-7.1 12.1l-0.3 0.9c0 0.2 0.1 0.4 0.1 0.5 0.1 0.3 0.1 0.6 0.1 1 0.3 0.3 0.5 0.7 0.7 1.1 0.9 0.9 2 2.4 2.7 4.4 0.2 0.3 0.4 0.7 0.7 1.2 6.4 1.6 7.9 6.1 8.2 8.9 0.1 1.4 0.1 3.8-1.3 6.2 0.4 4.8-2 7.7-4.8 9.5 2.8 1.5 5.2 4.1 5.4 8.6 0 1.2-0.1 2.3-0.4 3.2 1 1.5 1.8 3.4 1.8 5.8 0 3.3-1.2 5.6-3 7.3 0.7 1.3 1 2.9 1 4.8-0.1 2-0.8 6.2-5.5 8.6 0.9 1.6 1.6 3.7 1.3 6.2-0.3 3.3-1.8 5.5-3.7 7 1.7 1.9 2.8 4.4 2.3 7.9-0.1 0.8-0.5 2.4-1.5 4.1 2.7 3.3 2.4 6.9 2.2 8.2-0.1 0.4-0.2 0.8-0.2 1.1 2.8 3.2 2.5 6.8 2.2 8.5-0.3 1.7-1 3-1.8 4.1 0.4 1.4 0.4 3 0 4.9-0.7 2.8-2.9 7.3-9.9 7.8-0.3 0.4-0.6 0.7-0.9 1.1 0.1 0.9 0 1.9-0.2 2.9 5.6 4.3 4.8 9.5 4.1 11.7-1.6 4.9-5.7 6.6-8.6 7.2-0.8 1.1-1.8 1.8-2.9 2.4-0.1 0.4-0.1 0.8-0.2 1.2 2.4 2.5 5.1 6.6 2.9 12-1.8 4.5-5.3 5.9-8.6 6.3-0.5 0.6-1 1-1.5 1.4-0.1 1.1-0.3 2.3-0.8 3.5v0.2c-0.2 0.7-0.5 1.8-1.1 3.1-0.8 1.6-1.7 2.8-2.8 3.7 1.3 3.7 0 6.9-0.6 8-0.4 0.7-1.1 1.9-2.4 3 1.1 2.5 1.5 5.7-0.5 9.2-0.8 1.4-3.6 5.3-9.5 5.1-0.5 0.5-1 0.8-1.4 1.2v0.1c1.9 2.9 3.7 7.4 0.5 12.2-3.2 4.9-8.4 4.9-11.5 4.5 0.5 2.4 0.4 5.4-1.7 8.4-0.1 0.1-0.2 0.3-0.3 0.5-0.3 0.5-0.8 1.3-1.3 2-0.7 0.9-2.4 2.9-5.4 3.7-0.2 0.2-0.4 0.5-0.6 0.7 0.2 1.7 0.2 3.7-0.7 5.8-0.3 1.4-0.8 3.5-2.5 5.6-1.9 2.3-4.3 3.3-5.8 3.8-0.3 0.2-0.6 0.3-0.9 0.5 0.2 2.4-0.3 5.2-2.5 7.8-0.9 1-2.2 2.1-4 2.8-0.6 1.7-1.6 3-2.3 3.8-1.1 1.2-2.8 2.5-5.1 3-0.5 0.8-1.1 1.8-2 2.7-0.8 0.8-1.7 1.5-2.6 1.9-0.4 0.8-1 1.5-1.8 2.3-2.2 2.2-4.7 2.9-6.9 3 0.4 4.1-1.8 6.8-3.1 8.1-0.1 0.1-0.2 0.2-0.2 0.3-0.4 0.5-1.1 1.3-2 2.1-4.8 4.3-10.4 2.3-12.8 1.3l-1.8-0.3c-0.5 2.1-1.6 3.7-2.5 4.7-0.4 2.1-1.4 4.7-3.9 6.7-1.4 1.1-4.4 2.9-8.5 2-0.6 1.1-1.5 2.1-2.7 3-0.8 0.6-1.7 1.1-2.5 1.4 0.2 3.1-0.5 6.7-4.3 9.4-1.7 1.2-3.3 1.8-4.9 1.9-0.7 3.2-2.9 5.1-4.2 6-1 0.7-3.8 2.2-7.5 1.5-0.4 2.5-1.7 5.2-4.8 7.2-0.7 0.4-2 1.1-3.8 1.4-0.8 1.3-1.9 2.5-3.6 3.5l-0.3 0.3c-0.5 0.4-1.3 1-2.2 1.5-3.1 1.8-6.2 1.6-8.1 1.2h-0.4c-0.3 0.2-0.6 0.3-0.9 0.5-0.3 0.1-0.5 0.3-0.8 0.5-0.6 0.4-1.2 0.7-1.8 1.1-0.9 0.5-3.1 1.5-5.8 1.2-0.9 0.9-1.9 1.6-2.6 1.9-1.2 0.7-3.6 1.6-6.4 1-0.6 0.3-1.3 0.5-1.8 0.7-0.8 2-2.3 3.8-5 5.1-0.3 0.1-0.7 0.3-1.2 0.5-1.1 3.8-3.9 5.6-5.5 6.3-2.8 1.3-5.3 1.2-7.5 0.4-0.7 0.5-1.3 0.8-1.7 1-1.2 0.5-4.3 1.6-7.9 0.1-0.2 0.6-0.5 1.1-0.8 1.6-0.6 2.2-2.1 6.2-6.7 8-2.7 1.1-7.6 1.8-12-3.6-0.6 0.7-1.4 1.3-2.3 1.9-0.6 1.9-1.7 3.7-3.7 5-1 1.1-2.6 2.6-5.1 3.4-2.5 0.8-8.7 1.8-13.2-6.4-0.1-0.2-0.2-0.4-0.4-0.6-0.3 3.6-1.8 5.9-3.5 7.3-1 1.4-3 3.7-6.4 4.6-0.2 0.1-0.5 0.1-0.9 0.2-1.5 3.8-4.6 5.3-6.7 5.8-3.8 1-6.7-0.2-8.8-1.7-1.3 0-2.5-0.2-3.5-0.5-1.2 1.4-3.1 2.8-5.8 3.4-0.6 0.1-1.3 0.2-2.2 0.2-1.3 0.8-2.6 1.2-3.5 1.4-3.8 0.8-6.6-0.4-8.6-2.2-0.3 0.1-0.6 0.1-0.9 0.2-0.9 0.2-1.8 0.2-2.6 0.2-1.1 2.8-3.4 6.2-8.2 6.9-3.3 0.5-6-0.6-7.5-1.4-0.2 0-0.3-0.1-0.5-0.2-1.1 0.7-2.4 1.2-4 1.4-3.7 0.5-6.6-1-8.2-2.1-1.4 1.5-3.6 3-6.6 3.3-1.9 0.2-3.6-0.1-5-0.7-1.6 0.8-3.1 1.1-3.9 1.2-1.6 0.1-4.5 0.1-7.2-2.1-1.3 0.8-2.8 1.3-4.7 1.5h-1.5c-0.5 0.2-1 0.4-1.6 0.6-2.6 4.6-7 5.3-8.5 5.3-2.1 0.1-3.8-0.4-5.2-1.1-1.1 0.4-2.3 0.8-3.8 0.8-1.1 0-2-0.1-2.9-0.3-2 1.6-4.3 2-6 2-0.3-0.1-0.4-0.1-0.4-0.1z m-32.7-1.3z m-8.8-2.2z m103.5-6.6c-0.1 0-0.1 0 0 0-0.1 0-0.1 0 0 0z m-156.5-1.7s0.1 0 0 0c0.1 0 0 0 0 0z m175.8-2.2c-0.8 0.3-1.5 0.5-1.9 0.5 0.7 0 1.3-0.2 1.9-0.5z m-186.6-4.1z m-0.1 0z m237.6-6.8c-0.3 0.1-0.6 0.2-0.8 0.3 0.3-0.2 0.6-0.2 0.8-0.3z m-129.5-10.9c5.9 0 8.6 4.1 10 7.6 2.5-2.6 5.5-3 6.7-3.1 1.7-0.1 3.2 0.2 4.5 0.7 1.1-1.2 2.6-2.3 4.6-2.8 1.5-2.1 3.7-3.8 7.3-4.1 1.1-0.1 3-0.1 5 0.8 0.3 0 0.5-0.1 0.7-0.1 2.2-0.2 4 0.2 5.5 0.9 1.3-1.2 3.1-2.1 5.5-2.4 2.8-0.3 5 0.4 6.7 1.4 2.2-3.4 5.6-4.2 6.9-4.4 1.4-0.2 3.8-0.3 6.2 1 1.9-1.6 3.9-2.1 4.9-2.3 1.5-0.3 2.9-0.2 4.1 0.1 1.1-0.8 2.4-1.3 4.1-1.7 1.5-0.3 2.9-0.3 4.1 0 1.5-1.1 3-1.6 4-1.8 1.8-0.4 5.3-0.7 8.6 2.1 0.1 0 0.3-0.1 0.4-0.1 1.9-0.4 3.5-0.4 5 0 0.9-5.3 4.3-7.4 7.3-8.2 2.4-0.6 4.5-0.4 6.1 0.1 1.7-1.9 3.7-2.7 4.7-2.9 2.1-0.6 4-0.5 5.7-0.1 0.7-0.4 1.6-0.9 2.6-1.2 0.9-0.3 1.7-0.4 2.5-0.5 0.8-0.5 1.7-1 2.8-1.4 1.7-0.5 5.1-1.2 8.6 1.1 0.2-0.1 0.4-0.1 0.6-0.2 0.6-0.2 1.1-0.3 1.7-0.4 1-1.6 2.7-3.5 5.5-4.5 0.2-0.1 0.4-0.2 0.7-0.2 1-1.1 2.3-2.2 4.1-2.9 1.3-0.5 3.1-0.9 5.1-0.6 1.1-0.9 2.1-1.5 2.9-1.8 2.5-1 4.7-1 6.5-0.4 0.6-0.4 1.2-0.7 1.9-1 0.7-0.3 2.2-0.8 4-0.8 0.4-0.3 0.9-0.5 1.4-0.7 0.4-0.2 0.7-0.3 1.1-0.4 1.1-3.3 3.5-4.9 5.3-5.8 0.3-0.1 0.6-0.3 0.9-0.5 0.5-0.3 1-0.5 1.6-0.8 0.9-0.4 3.1-1.3 5.8-0.9 0.3-0.1 0.5-0.2 0.8-0.3 1-3.9 4-5.8 5.2-6.4 0.8-0.4 2-0.9 3.5-1.1 0.6-0.5 1.2-0.8 1.6-1.1 5.1-2.7 9.7-0.3 11.8 1.1 1.7 0.5 3.6 1.6 5.5 3.5l0.1 0.1c1-0.4 1.9-0.5 2.7-0.6-0.5-3.6-0.1-8.2 4.6-11.1 0-3.1 1-6.2 4.7-8.5 0.5-0.3 1-0.6 1.6-0.9 0.3-0.2 0.5-0.3 0.8-0.5 1.2-0.8 2.4-1.3 3.6-1.5 1-1.7 2.3-2.8 3.1-3.4 2.5-1.7 4.9-2 7.1-1.7 0.3-2.3 1.4-4.6 4-6.5 2.2-1.6 4.5-2.1 6.5-2 0.2-2.5 1.1-5 3.8-7.2 0.9-0.7 2.7-1.8 5-2.1 0.7-2.8 2.5-4.5 3.3-5.1 2.2-1.8 4.6-2.4 6.1-2.6 0.3-0.1 0.6-0.2 1-0.3l0.7-0.7c1.7-1.5 3.4-2.2 5.1-2.5 0.5-2.3 1.9-4 3-5 4.2-3.9 9-2.8 12-1.7 0.7-0.3 1.3-0.5 1.9-0.6 0.1-0.1 0.2-0.1 0.4-0.2-5.1-7.2-2.2-12.2 0-14.5 0.9-0.9 2.1-1.9 3.8-2.6 0.4-1.1 1.1-2.2 2-3.3 1.4-1.6 4.1-3.6 7.9-3.3 0.1-0.1 0.2-0.3 0.3-0.4 2.7-3.1 6.1-3.7 8.3-3.7-1-2.8-1.1-6.2 1.6-9.6 0.2-0.3 0.4-0.5 0.6-0.7 0.3-1.4 0.9-2.8 2-4.3 0.8-1 2.9-3.4 6.6-3.9 0.3-1.2 0.8-2.5 1.7-3.7 1.8-2.5 4.1-3.7 6.3-4.2 1-1.2 2.2-2 3.4-2.5-1.3-2.7-1.8-6.1 0.5-9.9 1.2-1.9 2.7-3.1 4.3-3.9 0.2-0.8 0.6-1.7 1.1-2.6 0.3-0.5 0.9-1.4 1.8-2.3-1.1-2.5-1.7-5.7 0.2-9.2 0.6-1.1 1.8-2.8 3.9-4-0.2-1.7 0-3.7 1-5.8 1.3-2.7 3.2-4.2 5.3-5 0.1-0.5 0.3-0.9 0.5-1.4 0.8-1.9 2-3.1 2.8-3.9 1.1-1.7 2.6-2.8 4.1-3.5 0.2-0.3 0.3-0.5 0.5-0.8-0.5-1.9-0.6-4.1 0.3-6.6 0.1-0.2 0.2-0.4 0.2-0.6-1.1-2.1-1.8-5-0.6-8.3 1.1-3.1 3-4.9 5.2-5.8-0.1-1 0-1.8 0.1-2.6 0-0.9 0.1-2.4 0.6-4.1 0.1-0.2 0.1-0.3 0.2-0.5-1.1-1.9-2.1-4.8-1.1-8.3 0.2-0.7 0.6-1.9 1.5-3.1 0-0.6 0.2-1.3 0.3-2 0.5-2.1 1.9-5 5.4-6.6-1.1-2.3-1-4.7-0.7-6.3 0.1-0.6 0.4-1.7 1-2.9-0.8-2.2-0.7-4.2-0.5-5.4 0.1-0.5 0.2-1 0.4-1.5-0.3-1.2-0.3-2.5-0.1-3.9 0.1-0.6 0.3-1.7 0.9-3-0.5-1.4-0.9-3.2-0.7-5.2 0.4-3.4 2.2-5.7 3.9-7.1-1.1-1.6-1.8-3.7-1.6-6.3 0-0.4 0.1-0.7 0.1-1.1-0.5-1.2-0.8-2.7-0.7-4.4 0.1-2.1 1-6.7 6.5-9-0.1-0.5-0.1-1.1-0.1-1.8 0-1.4 0.2-2.6 0.6-3.7-0.7-1.3-1.1-2.8-1.2-4.6 0-0.5 0-1 0.1-1.4-0.5-1.1-0.8-2.3-0.9-3.7-1.1-1.4-2-3.3-2.1-5.7-0.1-2.2 0.4-4 1.2-5.5-1.3-1.5-1.8-3.2-2.1-4.4-2.1-1.9-2.8-4.4-3.1-6.2-0.2-2.1 0.1-3.9 0.7-5.3-1.2-1.3-2.1-3-2.5-5.3-0.5-2.9 0.2-5.2 1.4-7v-1.8c-0.3-0.7-0.6-1.5-0.7-2.4-0.3-1.4-0.5-3.9 0.9-6.5-3.6-1.9-4.7-5.2-5-6.5-0.3-1.3-0.4-2.5-0.3-3.7-0.9-1-1.7-2.4-2.2-4.1-0.2-0.7-0.5-2-0.3-3.6-1.3-1.3-2-2.9-2.4-4.1-0.4-1.2-1.1-4.4 0.7-7.7-0.1-0.3-0.3-0.7-0.4-1-0.3-0.9-0.7-2.4-0.5-4.1-2-0.9-3.9-2.6-5-5.5-0.2-0.6-0.4-1.1-0.5-1.7-2.7-1.4-4-3.7-4.6-5.1-0.9-2.2-1-4.2-0.7-5.9-0.5-0.6-0.9-1.3-1.2-2.1-0.2-0.4-0.4-0.9-0.6-1.3-0.2-0.4-0.3-0.8-0.5-1.2-0.5-1.2-1.2-3.3-0.8-5.8-1.4-0.9-2.7-2.2-3.7-4.1-1.4-2.8-1.3-5.4-1-7.1-0.1-1.3 0.1-2.6 0.4-3.7-2.6-0.1-7-0.8-9.7-5.3-0.7-1.2-1.4-2.9-1.5-4.9-1.1-0.9-1.8-1.9-2.2-2.5-0.7-1.2-1.7-3.3-1.5-6-0.8-1.4-1.3-2.7-1.4-4-2-0.5-4-1.7-5.5-4-1.2-1.7-3.3-5.9-0.4-11-2.2-0.3-4.9-1.3-7-4-0.1-0.1-0.2-0.3-0.3-0.4-2.2-0.9-3.6-2.3-4.2-3.1-0.7-0.9-1.8-2.6-2.2-4.9-0.8-0.5-1.6-1.2-2.4-2.1l-0.9-1.2c-0.3-0.3-0.5-0.7-0.8-1-0.5-0.6-0.9-1.2-1.2-1.8-1.9-0.3-3.8-1.3-5.6-3.2-1-1.1-3.6-4.6-2.2-9.7-2.6 0.3-5.7-0.2-8.5-3-0.7-0.7-2-2.3-2.6-4.7-1.8-0.2-3.7-1-5.5-2.7-1.4-1.3-3-3.5-3.2-6.6-1.3-0.4-2.6-1.1-3.8-2.2-1.7-1.5-2.6-3.1-3.1-4.7l-0.1-0.1c-0.1-0.1-0.2-0.1-0.2-0.2-2.5 0.6-4.6 0.1-6.2-0.6-1.3-0.3-3.3-0.8-5.3-2.5-1.3-1.1-2.3-2.3-2.8-3.6-1.1-0.4-2.3-0.9-3.4-1.8-3.8-2.9-4.2-6.7-3.8-9.9-0.5-0.7-0.9-1.6-1.2-2.6-0.6-0.3-1.2-0.6-1.8-1-0.8 0-1.7-0.1-2.7-0.3-0.4 0-0.8 0-1.3-0.1-2.1 0.4-5.4 0.6-8.6-1.6-3.1-2.1-4.2-5-4.5-7.4-0.1-0.1-0.3-0.2-0.4-0.2-0.2-0.2-0.5-0.3-0.7-0.5-1.9 0.5-4.2 0.5-6.6-0.5-2.3 0.6-4.9 0.5-7.7-1.2-2-1.2-3.2-2.7-4-4.3-2.4 0.1-4.4-0.7-5.5-1.3-2.8-1.6-4.2-3.8-4.8-6-1.2-0.1-2.5-0.5-3.8-1.2-1.1-0.6-3.9-2.5-5-6.2-0.3-0.1-0.6-0.3-0.9-0.5-1-0.5-3.2-1.9-4.5-4.6-4 2-7.5 0.7-8.8 0.1-1.7-0.8-2.9-1.8-3.6-2.6-1.2 0-2.5-0.3-3.9-0.9-2.3-1-3.8-2.6-4.8-4.2-1.4-0.7-3.9-2.3-5.1-5.7-2.9 1.6-5.8 2.2-9.3 0.8l-12.2-4.9 8-10.5c0.6-0.7 1.2-1.3 1.9-1.9-0.3-2.2 0-4.6 1.7-7.1 1.2-1.7 2.5-2.8 4-3.5v-0.8c-0.2-1.6-0.2-3.9 1-6.4 0.1-0.3 0.3-0.6 0.5-0.9 0-1.6 0.5-2.8 0.7-3.4 0.7-1.9 1.8-3.2 2.6-4.1 0.3-0.5 0.7-1 1.1-1.5 0-0.8 0.1-1.5 0.2-2.1 0.1-0.4 0.2-0.8 0.3-1.3-0.6-1.3-1-2.8-1-4.6-0.5-1-0.9-2.2-1.1-3.7-0.1-1.2-0.1-2.3 0.1-3.3 0-0.1-0.1-0.2-0.1-0.3-0.2-0.7-0.3-1.4-0.3-2.1-0.9-1-1.5-2-1.8-2.7-0.9-1.9-1.1-3.6-0.9-5.2-0.3-0.3-0.7-0.6-1-0.9-1.3-1.5-2.2-3.1-2.5-4.9-0.5-0.2-1-0.4-1.5-0.7-0.2-0.1-0.5-0.3-0.8-0.5-0.9 0.2-1.9 0.2-3 0.1-2.4 1.3-4.9 1.3-6.9 0.8-0.6-0.1-1.2-0.3-1.7-0.5-0.1 0-0.3-0.1-0.4-0.1-3.4-0.7-5.5-2.7-6.7-4.2-0.2-0.2-0.5-0.4-0.7-0.6-1.6 1.4-3.8 2.4-6.8 2.3-2.2-0.1-3.9-0.7-5.3-1.6-1 0.6-2.1 1.1-3.5 1.3-0.9 0.4-2.4 0.9-4.3 1-3.5 0.2-6-1.4-7.6-2.7-2.1 2-4.6 2.5-6 2.6-1 0.1-1.8 0.1-2.7-0.1-1.8 1.6-3.9 2.1-5.5 2.3-4.5 0.5-7.4-1.6-9.2-4.2-0.7 0.3-1.6 0.5-2.5 0.6h-0.3c-1.4 2.3-3.7 4.6-7.7 5.1-2.3 0.3-4.2-0.2-5.8-0.9-1.1 0.5-2.1 0.7-2.9 0.8-1.3 0.2-4.6 0.3-7.6-2.2-0.4 0.1-0.8 0.2-1.3 0.2-2.3 0.3-4.2-0.2-5.7-0.8-0.8 0.4-1.7 0.6-2.7 0.8-2.2 2.1-4.7 2.6-5.8 2.8-2.6 0.3-4.8-0.3-6.4-1.3-2.1 3.8-5.7 4.7-7.4 5-1.2 0.2-2.4 0.1-3.3 0-1.6 1.2-3.3 1.7-4.4 1.9-3.3 0.6-5.9-0.4-7.4-1.3-1-0.3-2-0.7-2.8-1.3-1.8 2.5-4.2 3.5-5.7 3.9-3.5 0.9-6.3-0.1-8.2-1.1-0.7 2.9-2.4 5.8-6.4 7.3-3.4 1.2-6.2 0.6-8.4-0.6-0.6 4.4-3.6 6.6-5.7 7.6-1.5 0.7-3.7 1.4-6.2 0.8-1 3.6-3.6 5.4-4.7 6-1.9 1.1-3.7 1.5-5.3 1.4-0.5 0.5-1.1 1-1.8 1.5-0.3 0.2-0.6 0.3-0.8 0.5-0.7 1.1-1.6 2.1-2.9 3-0.9 0.6-2.4 1.5-4.5 1.8-0.5 1.6-1.5 3.2-3.2 4.6-0.9 0.8-2.3 1.6-3.9 2.1-0.2 0.2-0.3 0.3-0.5 0.4-2.2 2-6.9 4.6-13.6 0.2-1.7 6.1-6.3 7.4-8.5 7.7-1.5 0.2-2.9 0.1-4-0.2-1.5 1-3 1.4-4.2 1.6-1.3 0.2-3.5 0.3-5.8-0.8-0.2 0.2-0.5 0.4-0.7 0.6-1.1 1.5-3.3 3.7-7 4.4-2.4 0.5-4.5 0.1-6.1-0.7-0.8 0.4-1.7 0.6-2.4 0.8-4.5 0.9-7.7-1.1-9.8-3.2-0.9 0.5-1.8 0.7-2.3 0.8-0.3 0.1-0.7 0.1-1 0.2-1.2 1.9-3.2 4-6.5 4.8-0.7 0.2-1.3 0.3-1.9 0.3-1.9 2.7-4.5 3.6-5.6 3.9-2.1 0.6-4 0.5-5.6 0-1 0.6-1.9 1-2.8 1.2-1.3 0.4-2.5 0.5-3.6 0.4-0.6 0.3-1.2 0.6-1.9 0.8-1 0.3-2.5 0.6-4.2 0.4-0.5 0.2-1 0.4-1.3 0.5-1.6 0.5-4.9 1.1-8.3-1-0.5 0.1-0.9 0.1-1.3 0.1-0.6 0.4-1.4 0.7-2.2 1-1.3 0.5-2.6 0.6-3.8 0.6-1 1.1-2.3 2-4 2.6-0.5 0.2-1.1 0.4-1.6 0.5-0.9 1.8-2.3 3.5-4.7 4.6-0.3 0.6-0.7 1.1-1.1 1.6-0.8 1.6-2.5 4.1-5.8 5.5-1.7 0.7-3.3 0.9-4.2 0.9-1.2 0.3-2.4 0.4-3.5 0.3-0.2 0.1-0.3 0.3-0.5 0.4-0.8 1.1-2.3 2.7-4.6 3.7-1.9 0.9-6.3 2.1-10.8-1.6-1 3.9-3.8 5.8-5.3 6.5-2.3 1.2-4.6 1.3-6.5 0.9-0.9 0.4-1.7 0.6-2.5 0.8-0.6 4.3-3.6 6.5-5.1 7.3-2.7 1.5-5.1 1.5-7.3 1-0.4 0.3-0.8 0.6-1.3 0.8-1.7 1-5.7 2.6-10.2-0.1-0.3 1.5-1 3.7-2.7 5.5-0.1 2.9-1.1 6.1-4.7 8.4-1.4 0.9-2.8 1.4-4.2 1.6-0.7 1-1.6 2-2.9 2.8-0.1 0.1-0.2 0.1-0.3 0.2-1 2.1-2.5 3.4-3.4 4-1.2 0.9-3.1 1.8-5.4 1.9-0.9 2.4-2.5 3.8-3.5 4.6-3.5 2.6-7 2.4-9.9 1.2-0.3 0.4-0.7 0.8-1 1.1-0.5 0.7-1.3 1.8-2.7 2.8-0.7 0.6-1.4 1-2.1 1.3-0.3 0.4-0.6 0.8-1 1.2-0.2 2.3-1.2 4.7-3.6 6.8-1.6 1.4-3.3 2.1-4.9 2.4-0.4 1.7-1.4 3.6-3.1 5.2-0.5 0.5-1.6 1.3-3.2 1.9-0.7 1.9-1.8 3.2-2.6 4-1.4 1.3-4.7 3.7-9.5 2.4-0.6 1-1.2 1.7-1.6 2.1-1.3 1.3-2.7 2.1-4 2.6 2.2 5.7-0.8 9.7-1.9 10.9-1.2 1.3-4.1 3.7-8.5 3.2l-0.1 0.1c-1.5 1.7-3.3 2.7-4.8 3.2-0.1 0.8-0.2 1.5-0.5 2.3-0.2 1.5-0.7 3.9-2.5 6.1-0.9 1.2-2.9 3.1-6.1 3.6-0.6 0.7-1.3 1.2-2 1.6 0.8 3.9-0.9 6.9-1.7 8-0.1 1.7-0.6 3.6-1.9 5.5-3.1 4.5-7.6 4.7-11.2 4-0.2 0.4-0.5 0.9-0.7 1.3-1 1.5-2.1 2.5-3.3 3.2 0.4 2 0.2 4.3-1.2 6.8 1.6 2.7 2.3 6.2 0 10-1.4 2.5-4.7 6.2-11.6 4.8-0.1 1.2-0.4 2.5-1.1 3.9 0 0.1-0.1 0.2-0.1 0.3-0.2 0.4-0.4 1-0.6 1.6-0.2 0.8-0.5 2.1-1.2 3.5-0.5 1-1.1 1.9-1.7 2.6-0.2 0.8-0.4 1.6-0.8 2.4-0.3 0.5-0.5 1-0.8 1.5 0.1 0.5 0.2 1.1 0.3 1.7 0.8 1.9 1.6 5.1 0.1 8.7-0.4 1-0.9 1.8-1.2 2.4-0.1 0.1-0.1 0.2-0.2 0.3-0.3 0.7-0.9 1.8-2 3 0 1.1-0.1 2.8-0.8 4.6-0.5 1.4-1.9 4-4.8 5.4 1.1 2.1 1.5 4.6 0.5 7.6-0.1 0.2-0.1 0.3-0.2 0.5 0.4 2 0.1 3.8-0.3 5.1-0.4 1.4-2 5.3-6.9 6.8-0.3 1.2-0.8 2.1-1.3 3 0.2 1.1 0.4 2.8 0 4.7 0.4 1 0.7 2 0.8 3.2 0 0.1 0.1 0.2 0.1 0.4 1.2 1.8 2.7 4.7 1.9 8.6-0.4 1.8-1.3 4.4-3.9 6.1 0.5 1.9 0.4 3.5 0.2 4.3-0.3 1.8-1.4 5.5-5.5 7.5 1.2 2.3 1.2 4.5 1 5.8-0.1 0.6-0.3 1.7-0.8 3 2.1 1.8 3.6 4.4 3.4 8.2-0.2 2.2-1.2 7.1-7.6 9.1 6.9 2.3 7.7 7.6 7.7 9.9 0 1.1-0.2 2.5-0.7 3.9 0.6 1.2 1 2.6 1 4.2 0.1 2.3-0.5 4.1-1.4 5.6 0.3 0.8 0.4 1.7 0.5 2.6 0.3 4.4-2 7.3-4.4 9 1.3 1.8 1.7 3.7 1.9 4.9 0.2 1.7 0 3.2-0.2 4.1v0.5c0 0.3 0 0.7 0.1 1v0.2c2.5 1.3 4.6 3.5 5.2 7.4 0.2 1.2 0.2 2.4 0 3.3 0.3 0.4 0.6 0.7 0.8 1.2 1.1 1.1 2.6 3 3.1 5.8 0.4 2.2 0.7 7.4-5.3 11.1 0.7 1 1.4 2.2 1.7 3.7 0.3 1.3 0.9 4.9-1.6 8.3 2.5 0.8 6.2 2.6 7.7 7.2 0.3 0.9 0.4 1.8 0.5 2.7 4.3 1 6.2 4.2 7 6.3 0.9 2.5 1.5 6.9-2.8 11 0.5 0.2 1 0.5 1.5 0.8 2.2 0.6 5.8 2.1 7.6 6.3 0.9 2 1 3.8 0.8 5.4 2.1 1.2 3.3 3 3.9 4.4 0.8 1.7 2.8 7.4-3.2 12.9 0.2 0.3 0.3 0.6 0.5 0.9 0.4 0.7 0.6 1.4 0.8 2.1 5.7-0.1 8.4 3.8 9.1 5.1 1.8 3.1 1.6 6 0.7 8.5 0.1 0.2 0.2 0.4 0.4 0.6 0.2 0.3 0.4 0.7 0.6 1 1.5 0.3 3 0.9 4.3 2.1 2.9 0 6.4 0.9 8.8 4.6 0.4 0.5 0.9 1.5 1.3 2.8 0.8 0.7 1.3 1.4 1.6 1.8 1.4 2.1 1.9 4.2 1.9 5.9 1.4 0.6 2.8 1.7 4 3.3 1.7 2.3 2.1 4.6 2.2 6.3 1.2 0.5 2.3 1.3 3.4 2.5 1.9 0.4 3.8 1.5 5.4 3.5 0.9 1.1 3.1 4.3 2 8.8 1.1 0.7 1.9 1.5 2.3 2 1.9 2.2 2.5 4.5 2.6 6.6 0.5 0.2 1 0.4 1.4 0.7 1.4 0.4 3.4 1.3 5.1 3.1 0.6 0.7 1.5 1.7 2.1 3.2 1.4 0.5 2.7 1.2 4 2.5l0.3 0.3c1.5 0.4 3.2 1.2 4.6 2.6 1.8 1.8 2.7 3.7 3 5.6 0.8 0.5 1.4 1 1.9 1.4 1.6 1.5 2.5 3.2 2.9 4.8 2.8 0.3 4.7 1.8 5.5 2.4 2.6 2.3 3.5 4.9 3.5 7.3 5.6-2.6 9.8 0.1 11.1 1.1 4.9 4 4.1 9.3 2.8 12.9 0.4 0.8 0.6 1.6 0.8 2.4 6.4-5.4 11.6-2.8 13.6-1.4 1.2 0.8 2 1.7 2.7 2.7 0.5 0.3 1.1 0.6 1.6 0.9 3.1 2.2 4.2 5.1 4.4 7.7 1.2 0 3 0.3 4.8 1.2 3.3-0.7 6 0.5 7.3 1.3 1.1 0.7 2.3 1.7 3.3 3.1 3.2-0.7 5.7 0.4 7 1.2 1.4 0.8 4 2.8 4.8 6.4 0.2 0.1 0.3 0.2 0.5 0.2 1.9-0.3 3.9 0 6.1 1.2 1.3 0.7 3 1.9 4.1 3.9 1.8-0.2 3.7 0 5.8 1.1 4.1 2.1 5.4 5.6 5.6 8.7 1 0.5 1.8 1.1 2.4 1.8 2.4-0.2 4.2 0.5 5.1 0.9l0.6 0.3c1.5-0.1 3.2 0.1 5 0.9 0.2 0.1 0.3 0.2 0.5 0.3 3.6-2 7-1.1 8.6-0.4 1.5 0.6 4.1 2.1 5.4 5.3 2.1-0.9 4.5-1.1 7.4 0 3.7 1.4 5.4 4.1 6.2 6.7 3.7-3.2 7.5-2.7 9.8-1.9 1.6 0.5 2.8 1.3 3.4 1.7 0.9 0.4 1.7 0.9 2.4 1.4 0.6 0.1 1.2 0.2 1.8 0.4 1.8 0.6 3.2 1.5 4.3 2.6 1.1 0 2.3 0.1 3.5 0.4 0.4 0.1 0.8 0.3 1.2 0.4 1.3-0.2 2.8-0.1 4.4 0.3 1.9 0.6 3.4 1.5 4.5 2.6 0.2 0 0.3 0.1 0.5 0.1 0.6 0.2 1.2 0.4 1.7 0.6 1.2-0.1 2.5-0.1 3.8 0.3 2.1 0.5 5.2 2 6.7 5.7 2.6-1.2 5-0.9 6.4-0.6 0.4 0.1 0.9 0.2 1.5 0.5 1.2-0.2 2.6-0.2 4.1 0.1 1.8 0.4 3.2 1.1 4 1.6 0.1 0.1 0.3 0.1 0.4 0.2 1.4-0.8 2.7-1.1 4-1.2 1.3-0.4 3.3-0.8 5.7-0.4 2.5 0.5 8.3 2.5 8.6 11.5v0.2l0.6 0.3c3.4-4 7.8-3.8 9.2-3.6 2.7 0.4 4.6 1.6 5.8 2.6 0.3 0.1 0.6 0.3 0.9 0.5 1.8-1.2 4.2-2.3 7.4-1.9 2.8 0.3 4.8 1.5 6.2 3 1.3-0.5 3-0.8 4.8-0.7 2 0.2 3.6 0.8 4.9 1.7 2.6-1.7 5.3-1.8 6.3-1.7 2.2 0.1 4 0.9 5.4 1.9 1.6-1.9 4.4-4.2 8.8-4.1 1.8 0.1 3.3 0.5 4.5 1.2 1.6-1.4 3.7-2.3 6.6-2.3h0.1c3 0 5.2 1.2 6.8 2.7 2.3-2.5 5.1-3 7.1-3.1 0.1 1.4 0.1 1.4 0.2 1.4z m2.8 7.4z m-56.5-2.3z m42.3-0.8s0.1 0 0 0c0.1 0 0 0 0 0z m-11.2-0.2z m197.3-5.9c-0.1 0-0.1 0.1-0.2 0.1 0-0.1 0.1-0.1 0.2-0.1z m-70.9-2.2z m-306.8-1.5c0 0.1 0 0.1 0 0 0 0.1 0 0.1 0 0z m9.9-0.5z m87.2-0.9c0.1 0 0.1 0 0 0 0.1 0 0.1 0 0 0z m221.4-8.4h-0.1 0.1z m-340.3-6.8s0.1 0 0.1 0.1l-0.1-0.1z m50.7-1c0.1 0 0.2 0.1 0.3 0.1-0.1 0-0.2 0-0.3-0.1z m17.9-0.3z m390.2-5.8z m0 0z m7.7-4.9c-0.1 0-0.1 0.1 0 0-0.1 0.1-0.1 0 0 0z m6.2-6.8z m1.7-1.4c-0.7 0.7-1.3 1.1-1.7 1.4 0.6-0.4 1.2-0.9 1.7-1.4z m-524.1-5.9z m485.7-2.3c-0.6 0.2-1.2 0.4-1.8 0.7 0.4-0.1 1-0.4 1.8-0.7z m-467.7-15.3c0.1 0 0.2 0.1 0.2 0.1s-0.1 0-0.2-0.1z m-48.8-5.6c0.6 0.5 1.1 0.8 1.7 1.1-0.8-0.4-1.4-0.8-1.7-1.1z m561.7-3.4c-0.1 0-0.1 0 0 0-0.1 0-0.1 0 0 0z m-541.6-3.3z m587.9-3.5c-0.4 0.3-0.9 0.7-1.6 1.2 0.5-0.3 1.1-0.7 1.6-1.2z m7.3-1.1z m-597.3-2z m563.7-14.2z m-584.9-4.2z m606.2-5.6c0 0.1 0 0.1 0 0 0 0.1 0 0.1 0 0z m-656.9-10.1z m-0.5-6.4c0.3 0.6 0.7 1.3 1.2 1.9-0.3-0.4-0.8-1-1.2-1.9z m707.9-0.2c-0.1 0-0.1 0 0 0-0.1 0-0.1 0 0 0z m-682-3.9z m0 0z m681.6-0.2z m-19.1-4.2z m0-0.1z m-675.5-17.2z m0 0z m712.1-2.7z m-719.3-9.1z m0 0z m0 0zM116.1 724z m792.6-12.3zM133.1 709s0 0.1 0.1 0.1l-0.1-0.1z m-19.8-0.3z m-3.7-11.4z m805.9-2.4c0 0.1 0 0.1-0.1 0.2 0-0.1 0.1-0.1 0.1-0.2z m-782.9-4z m-30.5-0.3z m794.2-11.9z m0-0.1v0zM96.8 667.1s0.1 0 0 0c0.1 0 0 0 0 0z m0-0.1z m802.7-1.9z m1-8.3s0 0.1 0 0c0 0.1 0 0 0 0zM90.2 643.9zM90 642c0 0.6 0.1 1.2 0.2 1.8-0.1-0.3-0.2-1-0.2-1.8z m19.8-2.1z m-0.1 0c0.1 0 0.1 0 0 0 0.1 0 0.1 0 0 0z m0.6-25.6c0 0.1 0 0.1 0 0 0 0.1 0 0.1 0 0z m798.9-3.1z m1-2.7c0 0.1 0 0.1 0 0 0 0.1 0 0.1 0 0z m-798.6-16.3z m-26.9-65.5z m0 0zM927 495.5c0.1 0.4 0.3 1.1 0.3 1.9 0-0.7-0.1-1.3-0.3-1.9z m-794.6-21.2z m0 0z m785-0.9z m-784.6-5c0 0.1 0 0.1 0 0 0 0.1 0 0.1 0 0z m749.6-14z m-744.9-2.1z m741.3-2.3z m-740.3-0.3z m742.2-3.9s0 0.1 0.1 0.1c-0.1 0-0.1-0.1-0.1-0.1z m0 0z m29.2-1.7z m0-0.1s0 0.1 0 0c0 0.1 0 0 0 0z m-37.1-6.3z m0 0z m26.5-4.9z m-0.1-0.1s0 0.1 0.1 0.1c-0.1 0-0.1 0-0.1-0.1z m-780.4 0.1z m29.9-6.4zM862 415.1s0 0.1 0 0c0 0.1 0 0 0 0z m-702.6-1.7z m0.1-0.1c0 0.1-0.1 0.1 0 0-0.1 0.1 0 0.1 0 0z m-26.3 0c-0.1 0-0.1 0 0 0-0.1 0-0.1 0 0 0z m719.6-12.1z m10.8-27.2z m-673.2-0.7zM826 369z m4.1 0z m-659-5.6z m1.1-1c-0.4 0.3-0.7 0.6-1.1 1 0.3-0.3 0.6-0.7 1.1-1z m3.4-2.5c0.1-0.1 0.2-0.2 0.2-0.3-0.1 0.1-0.2 0.2-0.2 0.3z m43-5.9z m574.8-6.8z m0 0z m0 0z m43.6-1.5z m-601.9-6.5z m-38.8-1.5c-0.1 0.1-0.1 0.1 0 0-0.1 0.1-0.1 0.1 0 0z m631.7 0.1s0.1 0 0 0c0.1 0 0 0 0 0z m0 0z m-56.5-12.4c0.1 0 0.1 0 0 0 0.1 0 0.1 0 0 0z m-8.8-5.9c0.5 0.5 1 1 1.7 1.4-0.4-0.2-1.1-0.7-1.7-1.4z m-541.6-7.9z m574.4-4.7z m-525.1-1z m0 0z m485-13.5z m-50-3z m-380.5-0.3z m0.1 0z m7.8-2.8s0 0.1 0 0c0 0.1 0 0 0 0z m5.6-3.5c-0.3 0.2-0.6 0.3-0.9 0.4 0.4-0.1 0.7-0.3 0.9-0.4z m-51-5.7z m-3.8-0.9s-0.1 0 0 0c-0.1 0 0 0 0 0z m11.8-9.4z m0 0z m0-0.1c0 0.1 0 0.1 0 0 0 0.1 0 0.1 0 0z m0 0z m102.1-7.3z m29.5-1.8c-0.5 0.2-0.9 0.3-1.2 0.3 0.5-0.1 0.9-0.2 1.2-0.3z m-91.8-4.1s-0.1 0 0 0c-0.1 0 0 0 0 0zM716 243.2c-0.1 0.4-0.3 0.8-0.5 1.4 0.2-0.4 0.4-0.9 0.5-1.4zM472 240c-0.1 0.1-0.2 0.1-0.3 0.2 0.1 0 0.2-0.1 0.3-0.2z m216-2.5z m-284.9-5.2z m312.3-3.2c0-0.8 0-1.6-0.1-2.3 0.1 0.8 0.1 1.5 0.1 2.3zM510.6 213h-0.1c0.1 0.1 0.1 0 0.1 0z m32.1-4.4z m172.1-5.8c0.3 0.5 0.5 1 0.7 1.4-0.2-0.5-0.4-1-0.7-1.4z m-28.5 0.4z m-43.2-4z m-41.9-0.7s-0.1 0 0 0c-0.1 0 0 0 0 0z m0 0z m44.5-1.4z m0 0z m0 0z m-146-4.3z m0 0z m28.2-12.6c-0.1 0-0.1 0 0 0-0.1 0-0.1 0 0 0z m24.3-4.1z m31.9-1.9h-0.4c0.1 0.1 0.2 0.1 0.4 0z m49.1-3.3z m-3.2-3.4z" p-id="4378"></path><path d="M363.1 541.5m-29.3 0a29.3 29.3 0 1 0 58.6 0 29.3 29.3 0 1 0-58.6 0Z" p-id="4379"></path><path d="M655.8 541.5m-29.3 0a29.3 29.3 0 1 0 58.6 0 29.3 29.3 0 1 0-58.6 0Z" p-id="4380"></path><path d="M502.8 631.4L461.1 559c-4.1-7 1-15.9 9.2-15.9h83.6c8.1 0 13.2 8.8 9.2 15.9l-41.8 72.4c-4.2 7-14.4 7-18.5 0z" fill="#362D00" p-id="4381"></path></svg>